<svg width="140" height="48" viewBox="0 0 140 48" fill="none" xmlns="http://www.w3.org/2000/svg">
<path d="M6.83875 28.184V21.4H17.2708C19.4041 21.4 21.0468 20.8667 22.1988 19.8C23.3934 18.6907 23.9908 17.176 23.9908 15.256C23.9908 13.5067 23.3934 12.056 22.1988 10.904C21.0468 9.70933 19.4041 9.112 17.2708 9.112H6.83875V2.008H18.0387C20.9401 2.008 23.4788 2.584 25.6548 3.736C27.8734 4.84533 29.5801 6.38133 30.7747 8.344C32.0121 10.3067 32.6308 12.568 32.6308 15.128C32.6308 17.7733 32.0121 20.0773 30.7747 22.04C29.5801 23.96 27.8734 25.4747 25.6548 26.584C23.4361 27.6507 20.8548 28.184 17.9108 28.184H6.83875ZM0.43875 47V2.008H9.14275V47H0.43875ZM25.0148 47L10.1667 27.544L18.1667 25.048L35.5748 47H25.0148ZM57.6962 47.64C54.1549 47.64 50.9976 46.872 48.2242 45.336C45.4936 43.7573 43.3389 41.6027 41.7602 38.872C40.1816 36.1413 39.3922 33.048 39.3922 29.592V2.008H48.0962V29.848C48.0962 31.8533 48.5016 33.5813 49.3122 35.032C50.1656 36.4827 51.3176 37.6133 52.7682 38.424C54.2616 39.192 55.9042 39.576 57.6962 39.576C59.5309 39.576 61.1522 39.192 62.5602 38.424C63.9682 37.6133 65.0776 36.4827 65.8882 35.032C66.7416 33.5813 67.1682 31.8747 67.1682 29.912V2.008H75.9362V29.656C75.9362 33.112 75.1469 36.2053 73.5682 38.936C71.9896 41.624 69.8349 43.7573 67.1042 45.336C64.4162 46.872 61.2802 47.64 57.6962 47.64ZM84.1227 47V2.008H90.2027L92.8267 10.712V47H84.1227ZM115.227 47L88.5387 12.44L90.2027 2.008L116.891 36.568L115.227 47ZM115.227 47L112.731 38.552V2.008H121.499V47H115.227ZM130.983 31.32L129.703 0.727997H138.663L137.383 31.32H130.983ZM134.183 47.64C132.647 47.64 131.388 47.128 130.407 46.104C129.425 45.08 128.935 43.8213 128.935 42.328C128.935 40.8347 129.425 39.576 130.407 38.552C131.388 37.528 132.647 37.016 134.183 37.016C135.719 37.016 136.977 37.528 137.959 38.552C138.94 39.576 139.431 40.8347 139.431 42.328C139.431 43.8213 138.94 45.08 137.959 46.104C136.977 47.128 135.719 47.64 134.183 47.64Z" fill="#33CC9A"/>
</svg>
