<svg width="153" height="68" viewBox="0 0 153 68" fill="none" xmlns="http://www.w3.org/2000/svg">
<g filter="url(#filter0_d_385_1299)">
<path d="M10 22C10 16.3995 10 13.5992 11.0899 11.4601C12.0487 9.57847 13.5785 8.04867 15.4601 7.08993C17.5992 6 20.3995 6 26 6H127C132.601 6 135.401 6 137.54 7.08993C139.422 8.04867 140.951 9.57847 141.91 11.4601C143 13.5992 143 16.3995 143 22V38C143 43.6005 143 46.4008 141.91 48.5399C140.951 50.4215 139.422 51.9513 137.54 52.9101C135.401 54 132.601 54 127 54H26C20.3995 54 17.5992 54 15.4601 52.9101C13.5785 51.9513 12.0487 50.4215 11.0899 48.5399C10 46.4008 10 43.6005 10 38V22Z" fill="#5A75FA"/>
<path d="M40.7964 36.17C39.9691 36.17 39.1927 36.017 38.4674 35.711C37.7534 35.3937 37.1244 34.9573 36.5804 34.402C36.0477 33.8467 35.6284 33.2007 35.3224 32.464C35.0164 31.7273 34.8634 30.934 34.8634 30.084C34.8634 29.234 35.0164 28.4463 35.3224 27.721C35.6284 26.9843 36.0534 26.3383 36.5974 25.783C37.1414 25.2277 37.7761 24.797 38.5014 24.491C39.2381 24.185 40.0371 24.032 40.8984 24.032C41.8391 24.032 42.7061 24.2133 43.4994 24.576C44.2927 24.9387 44.9557 25.46 45.4884 26.14L44.3834 27.245C44.0094 26.701 43.5164 26.2873 42.9044 26.004C42.2924 25.7093 41.6237 25.562 40.8984 25.562C40.0371 25.562 39.2721 25.7547 38.6034 26.14C37.9461 26.5253 37.4304 27.058 37.0564 27.738C36.6937 28.418 36.5124 29.2 36.5124 30.084C36.5124 30.9793 36.6994 31.767 37.0734 32.447C37.4474 33.127 37.9517 33.6597 38.5864 34.045C39.2211 34.4303 39.9464 34.623 40.7624 34.623C41.5897 34.623 42.3037 34.4643 42.9044 34.147C43.5164 33.8297 43.9867 33.365 44.3154 32.753C44.6441 32.1297 44.8084 31.3703 44.8084 30.475L45.7774 31.172H40.6774V29.71H46.4574V29.948C46.4574 31.3193 46.2137 32.4697 45.7264 33.399C45.2504 34.317 44.5817 35.0083 43.7204 35.473C42.8704 35.9377 41.8957 36.17 40.7964 36.17ZM51.6669 36.17C50.8622 36.17 50.1369 35.9887 49.4909 35.626C48.8449 35.252 48.3349 34.7477 47.9609 34.113C47.5869 33.4783 47.3999 32.7587 47.3999 31.954C47.3999 31.1607 47.5812 30.4467 47.9439 29.812C48.3179 29.1773 48.8165 28.6787 49.4399 28.316C50.0745 27.942 50.7829 27.755 51.5649 27.755C52.3129 27.755 52.9702 27.925 53.5369 28.265C54.1149 28.605 54.5625 29.0753 54.8799 29.676C55.2085 30.2767 55.3729 30.9567 55.3729 31.716C55.3729 31.8293 55.3672 31.954 55.3559 32.09C55.3445 32.2147 55.3219 32.362 55.2879 32.532H48.4709V31.257H54.4719L53.9109 31.75C53.9109 31.206 53.8145 30.747 53.6219 30.373C53.4292 29.9877 53.1572 29.693 52.8059 29.489C52.4545 29.2737 52.0295 29.166 51.5309 29.166C51.0095 29.166 50.5505 29.2793 50.1539 29.506C49.7572 29.7327 49.4512 30.05 49.2359 30.458C49.0205 30.866 48.9129 31.3477 48.9129 31.903C48.9129 32.4697 49.0262 32.9683 49.2529 33.399C49.4795 33.8183 49.8025 34.147 50.2219 34.385C50.6412 34.6117 51.1229 34.725 51.6669 34.725C52.1202 34.725 52.5339 34.6457 52.9079 34.487C53.2932 34.3283 53.6219 34.0903 53.8939 33.773L54.8799 34.776C54.4945 35.2293 54.0185 35.575 53.4519 35.813C52.8965 36.051 52.3015 36.17 51.6669 36.17ZM57.6251 36V24.542H59.1551V36H57.6251ZM55.6361 29.319V27.925H61.1441V29.319H55.6361ZM68.916 36.17C67.9867 36.17 67.1933 36 66.536 35.66C65.8787 35.32 65.295 34.827 64.785 34.181L65.873 33.093C66.247 33.6143 66.6777 34.011 67.165 34.283C67.6523 34.5437 68.253 34.674 68.967 34.674C69.6697 34.674 70.2307 34.521 70.65 34.215C71.0807 33.909 71.296 33.4897 71.296 32.957C71.296 32.515 71.194 32.158 70.99 31.886C70.786 31.614 70.5083 31.393 70.157 31.223C69.817 31.0417 69.443 30.883 69.035 30.747C68.627 30.5997 68.219 30.4467 67.811 30.288C67.403 30.118 67.029 29.914 66.689 29.676C66.349 29.4267 66.0713 29.1037 65.856 28.707C65.652 28.3103 65.55 27.8117 65.55 27.211C65.55 26.5423 65.7087 25.9757 66.026 25.511C66.3547 25.035 66.7967 24.6723 67.352 24.423C67.9187 24.1623 68.5533 24.032 69.256 24.032C70.0267 24.032 70.718 24.185 71.33 24.491C71.942 24.7857 72.4407 25.1767 72.826 25.664L71.738 26.752C71.3867 26.344 71.007 26.038 70.599 25.834C70.2023 25.63 69.7433 25.528 69.222 25.528C68.5873 25.528 68.083 25.6697 67.709 25.953C67.335 26.225 67.148 26.6103 67.148 27.109C67.148 27.5057 67.25 27.8287 67.454 28.078C67.6693 28.316 67.947 28.52 68.287 28.69C68.627 28.86 69.001 29.0187 69.409 29.166C69.8283 29.302 70.242 29.455 70.65 29.625C71.058 29.795 71.432 30.0103 71.772 30.271C72.112 30.5317 72.384 30.8717 72.588 31.291C72.8033 31.699 72.911 32.2147 72.911 32.838C72.911 33.8807 72.5483 34.6967 71.823 35.286C71.109 35.8753 70.14 36.17 68.916 36.17ZM75.6257 36V24.542H77.1557V36H75.6257ZM73.6367 29.319V27.925H79.1447V29.319H73.6367ZM83.4205 36.17C82.6838 36.17 82.0151 35.9887 81.4145 35.626C80.8138 35.252 80.3378 34.7477 79.9865 34.113C79.6465 33.4783 79.4765 32.7643 79.4765 31.971C79.4765 31.1777 79.6465 30.4637 79.9865 29.829C80.3378 29.1943 80.8081 28.69 81.3975 28.316C81.9981 27.942 82.6725 27.755 83.4205 27.755C84.0325 27.755 84.5765 27.8853 85.0525 28.146C85.5398 28.3953 85.9308 28.7467 86.2255 29.2C86.5201 29.642 86.6845 30.1577 86.7185 30.747V33.178C86.6845 33.756 86.5201 34.2717 86.2255 34.725C85.9421 35.1783 85.5568 35.5353 85.0695 35.796C84.5935 36.0453 84.0438 36.17 83.4205 36.17ZM83.6755 34.725C84.4348 34.725 85.0468 34.47 85.5115 33.96C85.9761 33.4387 86.2085 32.7757 86.2085 31.971C86.2085 31.4157 86.1008 30.934 85.8855 30.526C85.6815 30.1067 85.3868 29.7837 85.0015 29.557C84.6161 29.319 84.1685 29.2 83.6585 29.2C83.1485 29.2 82.6951 29.319 82.2985 29.557C81.9131 29.795 81.6071 30.1237 81.3805 30.543C81.1651 30.951 81.0575 31.4213 81.0575 31.954C81.0575 32.498 81.1651 32.9797 81.3805 33.399C81.6071 33.807 81.9188 34.13 82.3155 34.368C82.7121 34.606 83.1655 34.725 83.6755 34.725ZM86.1065 36V33.824L86.3955 31.852L86.1065 29.897V27.925H87.6535V36H86.1065ZM89.473 36V27.925H91.003V36H89.473ZM91.003 31.393L90.425 31.138C90.425 30.1067 90.663 29.285 91.139 28.673C91.615 28.061 92.3007 27.755 93.196 27.755C93.604 27.755 93.9723 27.8287 94.301 27.976C94.6297 28.112 94.9357 28.3443 95.219 28.673L94.216 29.71C94.046 29.5287 93.859 29.3983 93.655 29.319C93.451 29.2397 93.213 29.2 92.941 29.2C92.3743 29.2 91.9097 29.3813 91.547 29.744C91.1843 30.1067 91.003 30.6563 91.003 31.393ZM97.096 36V24.542H98.626V36H97.096ZM95.107 29.319V27.925H100.615V29.319H95.107ZM105.197 36.17C104.392 36.17 103.667 35.9887 103.021 35.626C102.375 35.252 101.865 34.7477 101.491 34.113C101.117 33.4783 100.93 32.7587 100.93 31.954C100.93 31.1607 101.111 30.4467 101.474 29.812C101.848 29.1773 102.346 28.6787 102.97 28.316C103.604 27.942 104.313 27.755 105.095 27.755C105.843 27.755 106.5 27.925 107.067 28.265C107.645 28.605 108.092 29.0753 108.41 29.676C108.738 30.2767 108.903 30.9567 108.903 31.716C108.903 31.8293 108.897 31.954 108.886 32.09C108.874 32.2147 108.852 32.362 108.818 32.532H102.001V31.257H108.002L107.441 31.75C107.441 31.206 107.344 30.747 107.152 30.373C106.959 29.9877 106.687 29.693 106.336 29.489C105.984 29.2737 105.559 29.166 105.061 29.166C104.539 29.166 104.08 29.2793 103.684 29.506C103.287 29.7327 102.981 30.05 102.766 30.458C102.55 30.866 102.443 31.3477 102.443 31.903C102.443 32.4697 102.556 32.9683 102.783 33.399C103.009 33.8183 103.332 34.147 103.752 34.385C104.171 34.6117 104.653 34.725 105.197 34.725C105.65 34.725 106.064 34.6457 106.438 34.487C106.823 34.3283 107.152 34.0903 107.424 33.773L108.41 34.776C108.024 35.2293 107.548 35.575 106.982 35.813C106.426 36.051 105.831 36.17 105.197 36.17ZM113.58 36.17C112.832 36.17 112.163 35.9887 111.574 35.626C110.985 35.252 110.514 34.7477 110.163 34.113C109.823 33.4783 109.653 32.7643 109.653 31.971C109.653 31.1777 109.823 30.4637 110.163 29.829C110.514 29.1943 110.985 28.69 111.574 28.316C112.163 27.942 112.832 27.755 113.58 27.755C114.181 27.755 114.725 27.8853 115.212 28.146C115.699 28.3953 116.09 28.7467 116.385 29.2C116.691 29.642 116.861 30.1577 116.895 30.747V33.178C116.861 33.756 116.697 34.2717 116.402 34.725C116.107 35.1783 115.716 35.5353 115.229 35.796C114.742 36.0453 114.192 36.17 113.58 36.17ZM113.835 34.725C114.345 34.725 114.787 34.606 115.161 34.368C115.546 34.13 115.847 33.807 116.062 33.399C116.277 32.9797 116.385 32.5037 116.385 31.971C116.385 31.4157 116.272 30.934 116.045 30.526C115.83 30.118 115.529 29.795 115.144 29.557C114.77 29.319 114.328 29.2 113.818 29.2C113.308 29.2 112.86 29.319 112.475 29.557C112.09 29.795 111.784 30.1237 111.557 30.543C111.342 30.951 111.234 31.4213 111.234 31.954C111.234 32.498 111.342 32.9797 111.557 33.399C111.784 33.807 112.09 34.13 112.475 34.368C112.872 34.606 113.325 34.725 113.835 34.725ZM117.83 36H116.283V33.824L116.572 31.852L116.283 29.897V23.862H117.83V36Z" fill="#F6F6F7"/>
<path d="M38.4674 35.711L38.4268 35.8024L38.4285 35.8031L38.4674 35.711ZM36.5804 34.402L36.5082 34.4712L36.509 34.472L36.5804 34.402ZM35.3224 32.464L35.2301 32.5024L35.3224 32.464ZM35.3224 27.721L35.4146 27.7599L35.4148 27.7594L35.3224 27.721ZM36.5974 25.783L36.6689 25.853L36.5974 25.783ZM38.5014 24.491L38.4631 24.3986L38.4625 24.3989L38.5014 24.491ZM45.4884 26.14L45.5591 26.2107L45.6218 26.1481L45.5671 26.0783L45.4884 26.14ZM44.3834 27.245L44.301 27.3017L44.3691 27.4007L44.4541 27.3157L44.3834 27.245ZM42.9044 26.004L42.861 26.0941L42.8624 26.0947L42.9044 26.004ZM38.6034 26.14L38.5535 26.0534L38.5528 26.0537L38.6034 26.14ZM37.0564 27.738L36.9688 27.6898L36.9682 27.6909L37.0564 27.738ZM37.0734 32.447L36.9858 32.4952L37.0734 32.447ZM38.5864 34.045L38.5345 34.1305L38.5864 34.045ZM42.9044 34.147L42.8584 34.0582L42.8577 34.0586L42.9044 34.147ZM44.3154 32.753L44.4035 32.8003L44.4039 32.7996L44.3154 32.753ZM44.8084 30.475L44.8668 30.3938L44.7084 30.2799V30.475H44.8084ZM45.7774 31.172V31.272H46.0877L45.8358 31.0908L45.7774 31.172ZM40.6774 31.172H40.5774V31.272H40.6774V31.172ZM40.6774 29.71V29.61H40.5774V29.71H40.6774ZM46.4574 29.71H46.5574V29.61H46.4574V29.71ZM45.7264 33.399L45.6379 33.3526L45.6376 33.353L45.7264 33.399ZM43.7204 35.473L43.6729 35.385L43.6724 35.3853L43.7204 35.473ZM40.7964 36.07C39.9817 36.07 39.2187 35.9194 38.5063 35.6189L38.4285 35.8031C39.1668 36.1146 39.9564 36.27 40.7964 36.27V36.07ZM38.508 35.6196C37.8055 35.3074 37.187 34.8783 36.6519 34.332L36.509 34.472C37.0619 35.0364 37.7013 35.4799 38.4268 35.8024L38.508 35.6196ZM36.6526 34.3328C36.1288 33.7867 35.7162 33.1513 35.4148 32.4256L35.2301 32.5024C35.5406 33.25 35.9667 33.9066 36.5082 34.4712L36.6526 34.3328ZM35.4148 32.4256C35.1141 31.7019 34.9634 30.9217 34.9634 30.084H34.7634C34.7634 30.9463 34.9187 31.7528 35.2301 32.5024L35.4148 32.4256ZM34.9634 30.084C34.9634 29.2463 35.1141 28.4719 35.4146 27.7599L35.2303 27.6821C34.9187 28.4207 34.7634 29.2217 34.7634 30.084H34.9634ZM35.4148 27.7594C35.716 27.0342 36.134 26.399 36.6689 25.853L36.526 25.713C35.9728 26.2777 35.5408 26.9345 35.2301 27.6826L35.4148 27.7594ZM36.6689 25.853C37.2035 25.3072 37.827 24.884 38.5403 24.5831L38.4625 24.3989C37.7252 24.7099 37.0794 25.1481 36.526 25.713L36.6689 25.853ZM38.5398 24.5833C39.2633 24.2828 40.0492 24.132 40.8984 24.132V23.932C40.025 23.932 39.2128 24.0872 38.4631 24.3986L38.5398 24.5833ZM40.8984 24.132C41.8259 24.132 42.6786 24.3107 43.4578 24.6669L43.541 24.4851C42.7336 24.116 41.8523 23.932 40.8984 23.932V24.132ZM43.4578 24.6669C44.2368 25.023 44.887 25.5344 45.4097 26.2017L45.5671 26.0783C45.0245 25.3856 44.3487 24.8543 43.541 24.4851L43.4578 24.6669ZM45.4177 26.0693L44.3127 27.1743L44.4541 27.3157L45.5591 26.2107L45.4177 26.0693ZM44.4658 27.1883C44.0814 26.6292 43.5743 26.204 42.9464 25.9133L42.8624 26.0947C43.4585 26.3707 43.9374 26.7728 44.301 27.3017L44.4658 27.1883ZM42.9478 25.9139C42.3214 25.6123 41.6377 25.462 40.8984 25.462V25.662C41.6098 25.662 42.2635 25.8064 42.861 26.0941L42.9478 25.9139ZM40.8984 25.462C40.0216 25.462 39.239 25.6583 38.5535 26.0534L38.6533 26.2266C39.3051 25.851 40.0525 25.662 40.8984 25.662V25.462ZM38.5528 26.0537C37.8797 26.4484 37.3513 26.9943 36.9688 27.6898L37.144 27.7862C37.5095 27.1217 38.0125 26.6023 38.654 26.2263L38.5528 26.0537ZM36.9682 27.6909C36.5967 28.3874 36.4124 29.186 36.4124 30.084H36.6124C36.6124 29.214 36.7908 28.4486 37.1447 27.7851L36.9682 27.6909ZM36.4124 30.084C36.4124 30.9936 36.6025 31.7983 36.9858 32.4952L37.161 32.3988C36.7963 31.7357 36.6124 30.9651 36.6124 30.084H36.4124ZM36.9858 32.4952C37.3678 33.1898 37.8842 33.7356 38.5345 34.1305L38.6383 33.9595C38.0193 33.5837 37.527 33.0642 37.161 32.3988L36.9858 32.4952ZM38.5345 34.1305C39.1864 34.5262 39.93 34.723 40.7624 34.723V34.523C39.9628 34.523 39.2558 34.3344 38.6383 33.9595L38.5345 34.1305ZM40.7624 34.723C41.6025 34.723 42.3333 34.5618 42.9511 34.2354L42.8577 34.0586C42.2742 34.3668 41.577 34.523 40.7624 34.523V34.723ZM42.9504 34.2358C43.5805 33.9091 44.0654 33.4299 44.4035 32.8003L44.2273 32.7057C43.9081 33.3001 43.4524 33.7502 42.8584 34.0582L42.9504 34.2358ZM44.4039 32.7996C44.7419 32.1586 44.9084 31.3823 44.9084 30.475H44.7084C44.7084 31.3584 44.5463 32.1008 44.227 32.7064L44.4039 32.7996ZM44.75 30.5562L45.719 31.2532L45.8358 31.0908L44.8668 30.3938L44.75 30.5562ZM45.7774 31.072H40.6774V31.272H45.7774V31.072ZM40.7774 31.172V29.71H40.5774V31.172H40.7774ZM40.6774 29.81H46.4574V29.61H40.6774V29.81ZM46.3574 29.71V29.948H46.5574V29.71H46.3574ZM46.3574 29.948C46.3574 31.308 46.1157 32.4413 45.6379 33.3526L45.815 33.4454C46.3118 32.4981 46.5574 31.3307 46.5574 29.948H46.3574ZM45.6376 33.353C45.1703 34.2542 44.5156 34.9304 43.6729 35.385L43.7679 35.561C44.6479 35.0863 45.3305 34.3798 45.8152 33.445L45.6376 33.353ZM43.6724 35.3853C42.839 35.8408 41.8813 36.07 40.7964 36.07V36.27C41.9102 36.27 42.9018 36.0345 43.7684 35.5607L43.6724 35.3853ZM49.4909 35.626L49.4407 35.7126L49.4419 35.7132L49.4909 35.626ZM47.9609 34.113L48.047 34.0622L47.9609 34.113ZM47.9439 29.812L47.8577 29.7612L47.857 29.7624L47.9439 29.812ZM49.4399 28.316L49.4901 28.4024L49.4906 28.4022L49.4399 28.316ZM53.5369 28.265L53.4854 28.3508L53.4862 28.3512L53.5369 28.265ZM54.8799 29.676L54.7914 29.7227L54.7921 29.724L54.8799 29.676ZM55.3559 32.09L55.4554 32.0991L55.4555 32.0983L55.3559 32.09ZM55.2879 32.532V32.632H55.3698L55.3859 32.5516L55.2879 32.532ZM48.4709 32.532H48.3709V32.632H48.4709V32.532ZM48.4709 31.257V31.157H48.3709V31.257H48.4709ZM54.4719 31.257L54.5379 31.3321L54.7371 31.157H54.4719V31.257ZM53.9109 31.75H53.8109V31.971L53.9769 31.8251L53.9109 31.75ZM53.6219 30.373L53.5324 30.4177L53.533 30.4188L53.6219 30.373ZM52.8059 29.489L52.7536 29.5743L52.7556 29.5755L52.8059 29.489ZM50.1539 29.506L50.1042 29.4192L50.1539 29.506ZM49.2359 30.458L49.3243 30.5047L49.2359 30.458ZM49.2529 33.399L49.1644 33.4456L49.1649 33.4466L49.2529 33.399ZM50.2219 34.385L50.1725 34.472L50.1743 34.473L50.2219 34.385ZM52.9079 34.487L52.8698 34.3945L52.8688 34.3949L52.9079 34.487ZM53.8939 33.773L53.9652 33.7029L53.8888 33.6252L53.8179 33.7079L53.8939 33.773ZM54.8799 34.776L54.956 34.8408L55.0153 34.7711L54.9512 34.7059L54.8799 34.776ZM53.4519 35.813L53.4131 35.7208L53.4125 35.7211L53.4519 35.813ZM51.6669 36.07C50.8778 36.07 50.1696 35.8924 49.5398 35.5388L49.4419 35.7132C50.1041 36.085 50.8466 36.27 51.6669 36.27V36.07ZM49.541 35.5395C48.9096 35.174 48.4121 34.6819 48.047 34.0622L47.8747 34.1638C48.2576 34.8135 48.7801 35.33 49.4407 35.7125L49.541 35.5395ZM48.047 34.0622C47.6829 33.4443 47.4999 32.7425 47.4999 31.954H47.2999C47.2999 32.7748 47.4908 33.5123 47.8747 34.1638L48.047 34.0622ZM47.4999 31.954C47.4999 31.1765 47.6774 30.4799 48.0307 29.8616L47.857 29.7624C47.485 30.4134 47.2999 31.1448 47.2999 31.954H47.4999ZM48.03 29.8628C48.3955 29.2425 48.882 28.7563 49.4901 28.4024L49.3896 28.2296C48.7511 28.601 48.2402 29.1121 47.8577 29.7612L48.03 29.8628ZM49.4906 28.4022C50.1089 28.0378 50.7996 27.855 51.5649 27.855V27.655C50.7661 27.655 50.0401 27.8462 49.3891 28.2298L49.4906 28.4022ZM51.5649 27.855C52.2972 27.855 52.9362 28.0213 53.4854 28.3507L53.5883 28.1793C53.0041 27.8287 52.3285 27.655 51.5649 27.655V27.855ZM53.4862 28.3512C54.0479 28.6817 54.4826 29.1382 54.7914 29.7227L54.9683 29.6293C54.6424 29.0124 54.1818 28.5283 53.5876 28.1788L53.4862 28.3512ZM54.7921 29.724C55.1119 30.3084 55.2729 30.9716 55.2729 31.716H55.4729C55.4729 30.9418 55.3051 30.2449 54.9676 29.628L54.7921 29.724ZM55.2729 31.716C55.2729 31.8261 55.2673 31.9479 55.2562 32.0817L55.4555 32.0983C55.467 31.9601 55.4729 31.8326 55.4729 31.716H55.2729ZM55.2563 32.0809C55.2453 32.201 55.2233 32.3447 55.1898 32.5124L55.3859 32.5516C55.4204 32.3793 55.4437 32.2283 55.4554 32.0991L55.2563 32.0809ZM55.2879 32.432H48.4709V32.632H55.2879V32.432ZM48.5709 32.532V31.257H48.3709V32.532H48.5709ZM48.4709 31.357H54.4719V31.157H48.4709V31.357ZM54.4058 31.1819L53.8448 31.6749L53.9769 31.8251L54.5379 31.3321L54.4058 31.1819ZM54.0109 31.75C54.0109 31.1946 53.9125 30.7189 53.7108 30.3272L53.533 30.4188C53.7165 30.7751 53.8109 31.2174 53.8109 31.75H54.0109ZM53.7113 30.3283C53.5105 29.9266 53.2253 29.6169 52.8561 29.4025L52.7556 29.5755C53.0891 29.7691 53.3479 30.0487 53.5324 30.4177L53.7113 30.3283ZM52.8581 29.4037C52.488 29.1769 52.0441 29.066 51.5309 29.066V29.266C52.015 29.266 52.421 29.3704 52.7536 29.5743L52.8581 29.4037ZM51.5309 29.066C50.9946 29.066 50.518 29.1827 50.1042 29.4192L50.2035 29.5928C50.583 29.3759 51.0244 29.266 51.5309 29.266V29.066ZM50.1042 29.4192C49.6909 29.6554 49.3715 29.9867 49.1474 30.4113L49.3243 30.5047C49.5309 30.1133 49.8235 29.81 50.2035 29.5928L50.1042 29.4192ZM49.1474 30.4113C48.9231 30.8364 48.8129 31.3347 48.8129 31.903H49.0129C49.0129 31.3606 49.118 30.8956 49.3243 30.5047L49.1474 30.4113ZM48.8129 31.903C48.8129 32.4832 48.929 32.9984 49.1644 33.4456L49.3413 33.3524C49.1234 32.9383 49.0129 32.4561 49.0129 31.903H48.8129ZM49.1649 33.4466C49.4006 33.8826 49.737 34.2248 50.1725 34.472L50.2712 34.298C49.868 34.0692 49.5585 33.7541 49.3408 33.3514L49.1649 33.4466ZM50.1743 34.473C50.6102 34.7086 51.1086 34.825 51.6669 34.825V34.625C51.1371 34.625 50.6722 34.5147 50.2694 34.297L50.1743 34.473ZM51.6669 34.825C52.132 34.825 52.5592 34.7435 52.9469 34.5791L52.8688 34.3949C52.5085 34.5478 52.1083 34.625 51.6669 34.625V34.825ZM52.9459 34.5795C53.3459 34.4148 53.6875 34.1674 53.9698 33.8381L53.8179 33.7079C53.5562 34.0133 53.2405 34.2419 52.8698 34.3945L52.9459 34.5795ZM53.8225 33.8431L54.8085 34.8461L54.9512 34.7059L53.9652 33.7029L53.8225 33.8431ZM54.8037 34.7112C54.4288 35.1522 53.9658 35.4887 53.4131 35.7208L53.4906 35.9052C54.0712 35.6613 54.5602 35.3065 54.956 34.8408L54.8037 34.7112ZM53.4125 35.7211C52.8702 35.9535 52.2887 36.07 51.6669 36.07V36.27C52.3144 36.27 52.9228 36.1485 53.4912 35.9049L53.4125 35.7211ZM57.6251 36H57.5251V36.1H57.6251V36ZM57.6251 24.542V24.442H57.5251V24.542H57.6251ZM59.1551 24.542H59.2551V24.442H59.1551V24.542ZM59.1551 36V36.1H59.2551V36H59.1551ZM55.6361 29.319H55.5361V29.419H55.6361V29.319ZM55.6361 27.925V27.825H55.5361V27.925H55.6361ZM61.1441 27.925H61.2441V27.825H61.1441V27.925ZM61.1441 29.319V29.419H61.2441V29.319H61.1441ZM57.7251 36V24.542H57.5251V36H57.7251ZM57.6251 24.642H59.1551V24.442H57.6251V24.642ZM59.0551 24.542V36H59.2551V24.542H59.0551ZM59.1551 35.9H57.6251V36.1H59.1551V35.9ZM55.7361 29.319V27.925H55.5361V29.319H55.7361ZM55.6361 28.025H61.1441V27.825H55.6361V28.025ZM61.0441 27.925V29.319H61.2441V27.925H61.0441ZM61.1441 29.219H55.6361V29.419H61.1441V29.219ZM66.536 35.66L66.582 35.5712L66.536 35.66ZM64.785 34.181L64.7143 34.1103L64.6514 34.1732L64.7065 34.243L64.785 34.181ZM65.873 33.093L65.9543 33.0347L65.8856 32.939L65.8023 33.0223L65.873 33.093ZM67.165 34.283L67.1163 34.3703L67.1178 34.3712L67.165 34.283ZM70.65 34.215L70.5921 34.1335L70.5911 34.1342L70.65 34.215ZM70.99 31.886L71.07 31.826V31.826L70.99 31.886ZM70.157 31.223L70.1099 31.3113L70.1135 31.313L70.157 31.223ZM69.035 30.747L69.001 30.8411L69.0034 30.8419L69.035 30.747ZM67.811 30.288L67.7725 30.3803L67.7748 30.3812L67.811 30.288ZM66.689 29.676L66.6299 29.7567L66.6317 29.7579L66.689 29.676ZM65.856 28.707L65.7671 28.7527L65.7681 28.7547L65.856 28.707ZM66.026 25.511L65.9437 25.4542L65.9434 25.4546L66.026 25.511ZM67.352 24.423L67.393 24.5142L67.3938 24.5138L67.352 24.423ZM71.33 24.491L71.2853 24.5805L71.2866 24.5811L71.33 24.491ZM72.826 25.664L72.8967 25.7347L72.9596 25.6718L72.9044 25.602L72.826 25.664ZM71.738 26.752L71.6622 26.8173L71.7325 26.8989L71.8087 26.8227L71.738 26.752ZM70.599 25.834L70.5533 25.9229L70.5543 25.9234L70.599 25.834ZM67.709 25.953L67.7678 26.0339L67.7694 26.0327L67.709 25.953ZM67.454 28.078L67.3765 28.1414L67.3799 28.1451L67.454 28.078ZM68.287 28.69L68.2423 28.7794L68.287 28.69ZM69.409 29.166L69.375 29.2601L69.3782 29.2611L69.409 29.166ZM70.65 29.625L70.6885 29.5327L70.65 29.625ZM72.588 31.291L72.498 31.3348L72.4996 31.3377L72.588 31.291ZM71.823 35.286L71.7599 35.2084L71.7594 35.2089L71.823 35.286ZM68.916 36.07C67.9987 36.07 67.2219 35.9022 66.582 35.5712L66.4901 35.7488C67.1648 36.0978 67.9747 36.27 68.916 36.27V36.07ZM66.582 35.5712C65.9386 35.2384 65.3657 34.7551 64.8635 34.119L64.7065 34.243C65.2243 34.8989 65.8187 35.4016 66.4901 35.7488L66.582 35.5712ZM64.8557 34.2517L65.9437 33.1637L65.8023 33.0223L64.7143 34.1103L64.8557 34.2517ZM65.7918 33.1513C66.173 33.6828 66.6143 34.0902 67.1163 34.3703L67.2137 34.1957C66.741 33.9318 66.321 33.5459 65.9543 33.0347L65.7918 33.1513ZM67.1178 34.3712C67.6233 34.6415 68.2412 34.774 68.967 34.774V34.574C68.2648 34.574 67.6814 34.4458 67.2122 34.1948L67.1178 34.3712ZM68.967 34.774C69.6835 34.774 70.2674 34.618 70.709 34.2958L70.5911 34.1342C70.194 34.424 69.6559 34.574 68.967 34.574V34.774ZM70.7079 34.2965C71.1653 33.9716 71.396 33.5217 71.396 32.957H71.196C71.196 33.4576 70.9961 33.8464 70.5921 34.1335L70.7079 34.2965ZM71.396 32.957C71.396 32.4999 71.2904 32.1199 71.07 31.826L70.91 31.946C71.0976 32.1961 71.196 32.5301 71.196 32.957H71.396ZM71.07 31.826C70.8551 31.5395 70.5641 31.3089 70.2006 31.133L70.1135 31.313C70.4526 31.4771 70.7169 31.6885 70.91 31.946L71.07 31.826ZM70.2041 31.1348C69.8586 30.9505 69.4794 30.7897 69.0666 30.6521L69.0034 30.8419C69.4067 30.9763 69.7754 31.1328 70.11 31.3112L70.2041 31.1348ZM69.069 30.6529C68.6617 30.5059 68.2545 30.3532 67.8473 30.1948L67.7748 30.3812C68.1835 30.5402 68.5923 30.6934 69.001 30.8411L69.069 30.6529ZM67.8495 30.1957C67.4477 30.0283 67.0801 29.8277 66.7464 29.5941L66.6317 29.7579C66.9779 30.0003 67.3583 30.2077 67.7725 30.3803L67.8495 30.1957ZM66.7481 29.5954C66.4209 29.3554 66.1527 29.0439 65.9439 28.6593L65.7681 28.7547C65.99 29.1634 66.2772 29.498 66.6299 29.7566L66.7481 29.5954ZM65.9449 28.6613C65.7503 28.2828 65.65 27.801 65.65 27.211H65.45C65.45 27.8223 65.5537 28.3379 65.7671 28.7527L65.9449 28.6613ZM65.65 27.211C65.65 26.5586 65.8046 26.0125 66.1086 25.5674L65.9434 25.4546C65.6127 25.9388 65.45 26.5261 65.45 27.211H65.65ZM66.1083 25.5678C66.426 25.1076 66.8534 24.7565 67.393 24.5142L67.3111 24.3318C66.74 24.5882 66.2833 24.9624 65.9437 25.4542L66.1083 25.5678ZM67.3938 24.5138C67.9458 24.2599 68.5659 24.132 69.256 24.132V23.932C68.5407 23.932 67.8916 24.0647 67.3102 24.3321L67.3938 24.5138ZM69.256 24.132C70.0131 24.132 70.6888 24.2822 71.2853 24.5804L71.3747 24.4016C70.7472 24.0878 70.0402 23.932 69.256 23.932V24.132ZM71.2866 24.5811C71.8863 24.8698 72.3725 25.2517 72.7476 25.726L72.9044 25.602C72.5089 25.1017 71.9978 24.7015 71.3734 24.4009L71.2866 24.5811ZM72.7553 25.5933L71.6673 26.6813L71.8087 26.8227L72.8967 25.7347L72.7553 25.5933ZM71.8138 26.6867C71.4553 26.2705 71.0655 25.9555 70.6437 25.7446L70.5543 25.9234C70.9485 26.1205 71.318 26.4175 71.6622 26.8173L71.8138 26.6867ZM70.6447 25.7451C70.2317 25.5327 69.7566 25.428 69.222 25.428V25.628C69.7301 25.628 70.173 25.7273 70.5533 25.9229L70.6447 25.7451ZM69.222 25.428C68.5731 25.428 68.0452 25.5728 67.6486 25.8733L67.7694 26.0327C68.1208 25.7665 68.6015 25.628 69.222 25.628V25.428ZM67.6502 25.8721C67.248 26.1646 67.048 26.5813 67.048 27.109H67.248C67.248 26.6394 67.422 26.2854 67.7678 26.0339L67.6502 25.8721ZM67.048 27.109C67.048 27.5232 67.1549 27.8703 67.3766 28.1413L67.5314 28.0147C67.3452 27.7871 67.248 27.4881 67.248 27.109H67.048ZM67.3799 28.1451C67.6049 28.3938 67.8932 28.6049 68.2423 28.7794L68.3317 28.6006C68.0008 28.4351 67.7338 28.2382 67.5282 28.0109L67.3799 28.1451ZM68.2423 28.7794C68.5862 28.9514 68.9639 29.1116 69.375 29.2601L69.443 29.0719C69.0381 28.9258 68.6678 28.7686 68.3317 28.6006L68.2423 28.7794ZM69.3782 29.2611C69.7949 29.3963 70.206 29.5483 70.6115 29.7173L70.6885 29.5327C70.278 29.3617 69.8618 29.2077 69.4399 29.0709L69.3782 29.2611ZM70.6115 29.7173C71.0118 29.8841 71.3783 30.0951 71.7112 30.3504L71.8329 30.1916C71.4858 29.9255 71.1042 29.7059 70.6885 29.5327L70.6115 29.7173ZM71.7112 30.3504C72.0378 30.6008 72.3003 30.9281 72.4981 31.3347L72.6779 31.2473C72.4678 30.8152 72.1862 30.4626 71.8329 30.1916L71.7112 30.3504ZM72.4996 31.3377C72.7051 31.7271 72.811 32.2255 72.811 32.838H73.011C73.011 32.2039 72.9016 31.6709 72.6764 31.2443L72.4996 31.3377ZM72.811 32.838C72.811 33.8545 72.459 34.6404 71.7599 35.2084L71.8861 35.3636C72.6377 34.7529 73.011 33.9068 73.011 32.838H72.811ZM71.7594 35.2089C71.0683 35.7792 70.1243 36.07 68.916 36.07V36.27C70.1557 36.27 71.1497 35.9714 71.8867 35.3631L71.7594 35.2089ZM75.6257 36H75.5257V36.1H75.6257V36ZM75.6257 24.542V24.442H75.5257V24.542H75.6257ZM77.1557 24.542H77.2557V24.442H77.1557V24.542ZM77.1557 36V36.1H77.2557V36H77.1557ZM73.6367 29.319H73.5367V29.419H73.6367V29.319ZM73.6367 27.925V27.825H73.5367V27.925H73.6367ZM79.1447 27.925H79.2447V27.825H79.1447V27.925ZM79.1447 29.319V29.419H79.2447V29.319H79.1447ZM75.7257 36V24.542H75.5257V36H75.7257ZM75.6257 24.642H77.1557V24.442H75.6257V24.642ZM77.0557 24.542V36H77.2557V24.542H77.0557ZM77.1557 35.9H75.6257V36.1H77.1557V35.9ZM73.7367 29.319V27.925H73.5367V29.319H73.7367ZM73.6367 28.025H79.1447V27.825H73.6367V28.025ZM79.0447 27.925V29.319H79.2447V27.925H79.0447ZM79.1447 29.219H73.6367V29.419H79.1447V29.219ZM81.4145 35.626L81.3616 35.7109L81.3628 35.7116L81.4145 35.626ZM79.9865 34.113L79.8983 34.1602L79.899 34.1614L79.9865 34.113ZM79.9865 29.829L79.899 29.7806L79.8983 29.7818L79.9865 29.829ZM81.3975 28.316L81.3446 28.2311L81.3439 28.2316L81.3975 28.316ZM85.0525 28.146L85.0044 28.2337L85.0069 28.235L85.0525 28.146ZM86.2255 29.2L86.1416 29.2545L86.1423 29.2555L86.2255 29.2ZM86.7185 30.747H86.8186L86.8183 30.7412L86.7185 30.747ZM86.7185 33.178L86.8185 33.1839V33.178H86.7185ZM86.2255 34.725L86.1416 34.6705L86.1407 34.672L86.2255 34.725ZM85.0695 35.796L85.1159 35.8846L85.1166 35.8842L85.0695 35.796ZM85.5115 33.96L85.5854 34.0274L85.5861 34.0265L85.5115 33.96ZM85.8855 30.526L85.7955 30.5698L85.797 30.5727L85.8855 30.526ZM85.0015 29.557L84.9489 29.6421L84.9508 29.6432L85.0015 29.557ZM82.2985 29.557L82.247 29.4712L82.2459 29.4719L82.2985 29.557ZM81.3805 30.543L81.2925 30.4954L81.292 30.4963L81.3805 30.543ZM81.3805 33.399L81.2915 33.4447L81.293 33.4476L81.3805 33.399ZM82.3155 34.368L82.264 34.4537L82.3155 34.368ZM86.1065 36H86.0065V36.1H86.1065V36ZM86.1065 33.824L86.0075 33.8095L86.0065 33.8167V33.824H86.1065ZM86.3955 31.852L86.4944 31.8665L86.4965 31.8519L86.4944 31.8374L86.3955 31.852ZM86.1065 29.897H86.0065V29.9044L86.0075 29.9116L86.1065 29.897ZM86.1065 27.925V27.825H86.0065V27.925H86.1065ZM87.6535 27.925H87.7535V27.825H87.6535V27.925ZM87.6535 36V36.1H87.7535V36H87.6535ZM83.4205 36.07C82.7011 36.07 82.0504 35.8932 81.4662 35.5404L81.3628 35.7116C81.9798 36.0842 82.6665 36.27 83.4205 36.27V36.07ZM81.4673 35.5411C80.8815 35.1763 80.4173 34.6847 80.074 34.0646L79.899 34.1614C80.2583 34.8106 80.7461 35.3277 81.3616 35.7109L81.4673 35.5411ZM80.0746 34.0658C79.7432 33.4471 79.5765 32.7496 79.5765 31.971H79.3765C79.3765 32.7791 79.5498 33.5096 79.8983 34.1602L80.0746 34.0658ZM79.5765 31.971C79.5765 31.1924 79.7432 30.4949 80.0746 29.8762L79.8983 29.7818C79.5498 30.4324 79.3765 31.1629 79.3765 31.971H79.5765ZM80.074 29.8774C80.4175 29.2568 80.8764 28.7651 81.451 28.4004L81.3439 28.2316C80.7398 28.6149 80.2581 29.1318 79.899 29.7806L80.074 29.8774ZM81.4503 28.4009C82.0342 28.0373 82.69 27.855 83.4205 27.855V27.655C82.6549 27.655 81.9621 27.8467 81.3446 28.2311L81.4503 28.4009ZM83.4205 27.855C84.0179 27.855 84.545 27.9821 85.0044 28.2337L85.1005 28.0583C84.608 27.7886 84.0471 27.655 83.4205 27.655V27.855ZM85.0069 28.235C85.4789 28.4765 85.8566 28.816 86.1416 29.2545L86.3093 29.1455C86.005 28.6773 85.6007 28.3142 85.098 28.057L85.0069 28.235ZM86.1423 29.2555C86.426 29.6811 86.5855 30.1792 86.6186 30.7528L86.8183 30.7412C86.7834 30.1362 86.6143 29.6029 86.3087 29.1445L86.1423 29.2555ZM86.6185 30.747V33.178H86.8185V30.747H86.6185ZM86.6186 33.1721C86.5856 33.7341 86.4262 34.2327 86.1416 34.6705L86.3093 34.7795C86.6141 34.3106 86.7833 33.7779 86.8183 33.1839L86.6186 33.1721ZM86.1407 34.672C85.8669 35.11 85.4948 35.4551 85.0223 35.7078L85.1166 35.8842C85.6188 35.6156 86.0174 35.2467 86.3103 34.778L86.1407 34.672ZM85.0231 35.7074C84.5635 35.9481 84.0302 36.07 83.4205 36.07V36.27C84.0574 36.27 84.6234 36.1425 85.1159 35.8846L85.0231 35.7074ZM83.6755 34.825C84.4598 34.825 85.0997 34.5604 85.5854 34.0273L85.4375 33.8927C84.9939 34.3796 84.4098 34.625 83.6755 34.625V34.825ZM85.5861 34.0265C86.0696 33.4841 86.3085 32.7962 86.3085 31.971H86.1085C86.1085 32.7551 85.8827 33.3932 85.4368 33.8935L85.5861 34.0265ZM86.3085 31.971C86.3085 31.4027 86.1982 30.9044 85.9739 30.4793L85.797 30.5727C86.0034 30.9636 86.1085 31.4286 86.1085 31.971H86.3085ZM85.9754 30.4823C85.7632 30.046 85.4552 29.7079 85.0522 29.4708L84.9508 29.6432C85.3184 29.8594 85.5998 30.1673 85.7955 30.5697L85.9754 30.4823ZM85.054 29.4719C84.651 29.223 84.1846 29.1 83.6585 29.1V29.3C84.1523 29.3 84.5813 29.415 84.9489 29.6421L85.054 29.4719ZM83.6585 29.1C83.1323 29.1 82.6608 29.223 82.247 29.4713L82.3499 29.6427C82.7295 29.415 83.1647 29.3 83.6585 29.3V29.1ZM82.2459 29.4719C81.8449 29.7196 81.527 30.0616 81.2925 30.4954L81.4684 30.5906C81.6872 30.1858 81.9814 29.8704 82.351 29.6421L82.2459 29.4719ZM81.292 30.4963C81.068 30.9208 80.9575 31.4076 80.9575 31.954H81.1575C81.1575 31.4351 81.2623 30.9812 81.4689 30.5897L81.292 30.4963ZM80.9575 31.954C80.9575 32.5114 81.0679 33.0092 81.2915 33.4447L81.4694 33.3533C81.2624 32.9502 81.1575 32.4846 81.1575 31.954H80.9575ZM81.293 33.4476C81.5282 33.8708 81.8522 34.2066 82.264 34.4537L82.3669 34.2823C81.9854 34.0534 81.6861 33.7432 81.4679 33.3504L81.293 33.4476ZM82.264 34.4537C82.6778 34.702 83.1493 34.825 83.6755 34.825V34.625C83.1817 34.625 82.7465 34.51 82.3669 34.2823L82.264 34.4537ZM86.2065 36V33.824H86.0065V36H86.2065ZM86.2054 33.8385L86.4944 31.8665L86.2965 31.8375L86.0075 33.8095L86.2054 33.8385ZM86.4944 31.8374L86.2054 29.8824L86.0075 29.9116L86.2965 31.8666L86.4944 31.8374ZM86.2065 29.897V27.925H86.0065V29.897H86.2065ZM86.1065 28.025H87.6535V27.825H86.1065V28.025ZM87.5535 27.925V36H87.7535V27.925H87.5535ZM87.6535 35.9H86.1065V36.1H87.6535V35.9ZM89.473 36H89.373V36.1H89.473V36ZM89.473 27.925V27.825H89.373V27.925H89.473ZM91.003 27.925H91.103V27.825H91.003V27.925ZM91.003 36V36.1H91.103V36H91.003ZM91.003 31.393L90.9626 31.4845L91.103 31.5464V31.393H91.003ZM90.425 31.138H90.325V31.2032L90.3846 31.2295L90.425 31.138ZM91.139 28.673L91.0601 28.6116L91.139 28.673ZM94.301 27.976L94.2601 28.0673L94.2628 28.0684L94.301 27.976ZM95.219 28.673L95.2909 28.7425L95.3544 28.6769L95.2947 28.6077L95.219 28.673ZM94.216 29.71L94.143 29.7784L94.2149 29.855L94.2879 29.7795L94.216 29.71ZM91.547 29.744L91.4763 29.6733L91.547 29.744ZM89.573 36V27.925H89.373V36H89.573ZM89.473 28.025H91.003V27.825H89.473V28.025ZM90.903 27.925V36H91.103V27.925H90.903ZM91.003 35.9H89.473V36.1H91.003V35.9ZM91.0434 31.3015L90.4654 31.0465L90.3846 31.2295L90.9626 31.4845L91.0434 31.3015ZM90.525 31.138C90.525 30.1216 90.7595 29.3238 91.2179 28.7344L91.0601 28.6116C90.5665 29.2462 90.325 30.0918 90.325 31.138H90.525ZM91.2179 28.7344C91.6719 28.1507 92.3261 27.855 93.196 27.855V27.655C92.2752 27.655 91.5581 27.9713 91.0601 28.6116L91.2179 28.7344ZM93.196 27.855C93.5918 27.855 93.9459 27.9264 94.2601 28.0673L94.3419 27.8847C93.9988 27.7309 93.6162 27.655 93.196 27.655V27.855ZM94.2628 28.0684C94.5741 28.1972 94.8679 28.4189 95.1433 28.7383L95.2947 28.6077C95.0034 28.2698 94.6852 28.0268 94.3392 27.8836L94.2628 28.0684ZM95.1471 28.6035L94.1441 29.6405L94.2879 29.7795L95.2909 28.7425L95.1471 28.6035ZM94.2889 29.6416C94.1101 29.4508 93.911 29.3112 93.6912 29.2258L93.6187 29.4122C93.807 29.4854 93.9819 29.6065 94.143 29.7784L94.2889 29.6416ZM93.6912 29.2258C93.4733 29.141 93.2225 29.1 92.941 29.1V29.3C93.2035 29.3 93.4287 29.3383 93.6187 29.4122L93.6912 29.2258ZM92.941 29.1C92.3509 29.1 91.8598 29.2898 91.4763 29.6733L91.6177 29.8147C91.9596 29.4728 92.3978 29.3 92.941 29.3V29.1ZM91.4763 29.6733C91.088 30.0616 90.903 30.6414 90.903 31.393H91.103C91.103 30.6712 91.2807 30.1517 91.6177 29.8147L91.4763 29.6733ZM97.096 36H96.996V36.1H97.096V36ZM97.096 24.542V24.442H96.996V24.542H97.096ZM98.626 24.542H98.726V24.442H98.626V24.542ZM98.626 36V36.1H98.726V36H98.626ZM95.107 29.319H95.007V29.419H95.107V29.319ZM95.107 27.925V27.825H95.007V27.925H95.107ZM100.615 27.925H100.715V27.825H100.615V27.925ZM100.615 29.319V29.419H100.715V29.319H100.615ZM97.196 36V24.542H96.996V36H97.196ZM97.096 24.642H98.626V24.442H97.096V24.642ZM98.526 24.542V36H98.726V24.542H98.526ZM98.626 35.9H97.096V36.1H98.626V35.9ZM95.207 29.319V27.925H95.007V29.319H95.207ZM95.107 28.025H100.615V27.825H95.107V28.025ZM100.515 27.925V29.319H100.715V27.925H100.515ZM100.615 29.219H95.107V29.419H100.615V29.219ZM103.021 35.626L102.971 35.7126L102.972 35.7132L103.021 35.626ZM101.491 34.113L101.577 34.0622L101.491 34.113ZM101.474 29.812L101.388 29.7612L101.387 29.7624L101.474 29.812ZM102.97 28.316L103.02 28.4024L103.021 28.4022L102.97 28.316ZM107.067 28.265L107.015 28.3508L107.016 28.3512L107.067 28.265ZM108.41 29.676L108.321 29.7227L108.322 29.724L108.41 29.676ZM108.886 32.09L108.985 32.0991L108.985 32.0983L108.886 32.09ZM108.818 32.532V32.632H108.9L108.916 32.5516L108.818 32.532ZM102.001 32.532H101.901V32.632H102.001V32.532ZM102.001 31.257V31.157H101.901V31.257H102.001ZM108.002 31.257L108.068 31.3321L108.267 31.157H108.002V31.257ZM107.441 31.75H107.341V31.971L107.507 31.8251L107.441 31.75ZM107.152 30.373L107.062 30.4177L107.063 30.4188L107.152 30.373ZM106.336 29.489L106.284 29.5743L106.286 29.5755L106.336 29.489ZM103.684 29.506L103.634 29.4192L103.684 29.506ZM102.766 30.458L102.854 30.5047L102.766 30.458ZM102.783 33.399L102.694 33.4456L102.695 33.4466L102.783 33.399ZM103.752 34.385L103.702 34.472L103.704 34.473L103.752 34.385ZM106.438 34.487L106.4 34.3945L106.399 34.3949L106.438 34.487ZM107.424 33.773L107.495 33.7029L107.419 33.6252L107.348 33.7079L107.424 33.773ZM108.41 34.776L108.486 34.8408L108.545 34.7711L108.481 34.7059L108.41 34.776ZM106.982 35.813L106.943 35.7208L106.942 35.7211L106.982 35.813ZM105.197 36.07C104.408 36.07 103.7 35.8924 103.07 35.5388L102.972 35.7132C103.634 36.085 104.377 36.27 105.197 36.27V36.07ZM103.071 35.5395C102.44 35.174 101.942 34.6819 101.577 34.0622L101.405 34.1638C101.788 34.8135 102.31 35.33 102.971 35.7125L103.071 35.5395ZM101.577 34.0622C101.213 33.4443 101.03 32.7425 101.03 31.954H100.83C100.83 32.7748 101.021 33.5123 101.405 34.1638L101.577 34.0622ZM101.03 31.954C101.03 31.1765 101.207 30.4799 101.561 29.8616L101.387 29.7624C101.015 30.4134 100.83 31.1448 100.83 31.954H101.03ZM101.56 29.8628C101.925 29.2425 102.412 28.7563 103.02 28.4024L102.92 28.2296C102.281 28.601 101.77 29.1121 101.388 29.7612L101.56 29.8628ZM103.021 28.4022C103.639 28.0378 104.33 27.855 105.095 27.855V27.655C104.296 27.655 103.57 27.8462 102.919 28.2298L103.021 28.4022ZM105.095 27.855C105.827 27.855 106.466 28.0213 107.015 28.3507L107.118 28.1793C106.534 27.8287 105.858 27.655 105.095 27.655V27.855ZM107.016 28.3512C107.578 28.6817 108.013 29.1382 108.321 29.7227L108.498 29.6293C108.172 29.0124 107.712 28.5283 107.118 28.1788L107.016 28.3512ZM108.322 29.724C108.642 30.3084 108.803 30.9716 108.803 31.716H109.003C109.003 30.9418 108.835 30.2449 108.498 29.628L108.322 29.724ZM108.803 31.716C108.803 31.8261 108.797 31.9479 108.786 32.0817L108.985 32.0983C108.997 31.9601 109.003 31.8326 109.003 31.716H108.803ZM108.786 32.0809C108.775 32.201 108.753 32.3447 108.72 32.5124L108.916 32.5516C108.95 32.3793 108.974 32.2283 108.985 32.0991L108.786 32.0809ZM108.818 32.432H102.001V32.632H108.818V32.432ZM102.101 32.532V31.257H101.901V32.532H102.101ZM102.001 31.357H108.002V31.157H102.001V31.357ZM107.936 31.1819L107.375 31.6749L107.507 31.8251L108.068 31.3321L107.936 31.1819ZM107.541 31.75C107.541 31.1946 107.442 30.7189 107.241 30.3272L107.063 30.4188C107.246 30.7751 107.341 31.2174 107.341 31.75H107.541ZM107.241 30.3283C107.04 29.9266 106.755 29.6169 106.386 29.4025L106.286 29.5755C106.619 29.7691 106.878 30.0487 107.062 30.4177L107.241 30.3283ZM106.388 29.4037C106.018 29.1769 105.574 29.066 105.061 29.066V29.266C105.545 29.266 105.951 29.3704 106.284 29.5743L106.388 29.4037ZM105.061 29.066C104.525 29.066 104.048 29.1827 103.634 29.4192L103.733 29.5928C104.113 29.3759 104.554 29.266 105.061 29.266V29.066ZM103.634 29.4192C103.221 29.6554 102.901 29.9867 102.677 30.4113L102.854 30.5047C103.061 30.1133 103.353 29.81 103.733 29.5928L103.634 29.4192ZM102.677 30.4113C102.453 30.8364 102.343 31.3347 102.343 31.903H102.543C102.543 31.3606 102.648 30.8956 102.854 30.5047L102.677 30.4113ZM102.343 31.903C102.343 32.4832 102.459 32.9984 102.694 33.4456L102.871 33.3524C102.653 32.9383 102.543 32.4561 102.543 31.903H102.343ZM102.695 33.4466C102.931 33.8826 103.267 34.2248 103.702 34.472L103.801 34.298C103.398 34.0692 103.088 33.7541 102.871 33.3514L102.695 33.4466ZM103.704 34.473C104.14 34.7086 104.639 34.825 105.197 34.825V34.625C104.667 34.625 104.202 34.5147 103.799 34.297L103.704 34.473ZM105.197 34.825C105.662 34.825 106.089 34.7435 106.477 34.5791L106.399 34.3949C106.038 34.5478 105.638 34.625 105.197 34.625V34.825ZM106.476 34.5795C106.876 34.4148 107.217 34.1674 107.5 33.8381L107.348 33.7079C107.086 34.0133 106.77 34.2419 106.4 34.3945L106.476 34.5795ZM107.352 33.8431L108.338 34.8461L108.481 34.7059L107.495 33.7029L107.352 33.8431ZM108.334 34.7112C107.959 35.1522 107.496 35.4887 106.943 35.7208L107.021 35.9052C107.601 35.6613 108.09 35.3065 108.486 34.8408L108.334 34.7112ZM106.942 35.7211C106.4 35.9535 105.819 36.07 105.197 36.07V36.27C105.844 36.27 106.453 36.1485 107.021 35.9049L106.942 35.7211ZM111.574 35.626L111.52 35.7104L111.522 35.7112L111.574 35.626ZM110.163 34.113L110.075 34.1602L110.076 34.1614L110.163 34.113ZM110.163 29.829L110.076 29.7806L110.075 29.7818L110.163 29.829ZM115.212 28.146L115.165 28.2342L115.167 28.235L115.212 28.146ZM116.385 29.2L116.301 29.2545L116.303 29.2569L116.385 29.2ZM116.895 30.747H116.995L116.995 30.7412L116.895 30.747ZM116.895 33.178L116.995 33.1839V33.178H116.895ZM116.402 34.725L116.486 34.7795L116.402 34.725ZM115.229 35.796L115.275 35.885L115.276 35.8842L115.229 35.796ZM115.161 34.368L115.108 34.2829L115.107 34.2836L115.161 34.368ZM116.062 33.399L116.15 33.4457L116.151 33.4447L116.062 33.399ZM116.045 30.526L115.957 30.5727L115.958 30.5746L116.045 30.526ZM115.144 29.557L115.09 29.6414L115.092 29.6421L115.144 29.557ZM112.475 29.557L112.423 29.4719L112.475 29.557ZM111.557 30.543L111.469 30.4954L111.469 30.4963L111.557 30.543ZM111.557 33.399L111.468 33.4447L111.47 33.4476L111.557 33.399ZM112.475 34.368L112.423 34.4531L112.424 34.4537L112.475 34.368ZM117.83 36V36.1H117.93V36H117.83ZM116.283 36H116.183V36.1H116.283V36ZM116.283 33.824L116.184 33.8095L116.183 33.8167V33.824H116.283ZM116.572 31.852L116.671 31.8665L116.673 31.8519L116.671 31.8374L116.572 31.852ZM116.283 29.897H116.183V29.9044L116.184 29.9116L116.283 29.897ZM116.283 23.862V23.762H116.183V23.862H116.283ZM117.83 23.862H117.93V23.762H117.83V23.862ZM113.58 36.07C112.849 36.07 112.199 35.893 111.626 35.5408L111.522 35.7112C112.128 36.0843 112.815 36.27 113.58 36.27V36.07ZM111.628 35.5416C111.053 35.1769 110.594 34.6852 110.251 34.0646L110.076 34.1614C110.435 34.8102 110.916 35.3271 111.52 35.7104L111.628 35.5416ZM110.251 34.0658C109.92 33.4471 109.753 32.7496 109.753 31.971H109.553C109.553 32.7791 109.726 33.5096 110.075 34.1602L110.251 34.0658ZM109.753 31.971C109.753 31.1924 109.92 30.4949 110.251 29.8762L110.075 29.7818C109.726 30.4324 109.553 31.1629 109.553 31.971H109.753ZM110.251 29.8774C110.594 29.2568 111.053 28.7651 111.628 28.4004L111.52 28.2316C110.916 28.6149 110.435 29.1318 110.076 29.7806L110.251 29.8774ZM111.628 28.4004C112.2 28.0373 112.85 27.855 113.58 27.855V27.655C112.814 27.655 112.127 27.8467 111.52 28.2316L111.628 28.4004ZM113.58 27.855C114.166 27.855 114.693 27.9819 115.165 28.2342L115.259 28.0578C114.756 27.7887 114.196 27.655 113.58 27.655V27.855ZM115.167 28.235C115.638 28.4765 116.016 28.816 116.301 29.2545L116.469 29.1455C116.165 28.6773 115.76 28.3142 115.258 28.057L115.167 28.235ZM116.303 29.2569C116.597 29.6823 116.762 30.1799 116.795 30.7528L116.995 30.7412C116.96 30.1354 116.785 29.6017 116.467 29.1431L116.303 29.2569ZM116.795 30.747V33.178H116.995V30.747H116.795ZM116.795 33.1721C116.762 33.7341 116.603 34.2327 116.318 34.6705L116.486 34.7795C116.791 34.3106 116.96 33.7779 116.995 33.1839L116.795 33.1721ZM116.318 34.6705C116.033 35.1094 115.655 35.4549 115.182 35.7078L115.276 35.8842C115.778 35.6157 116.182 35.2473 116.486 34.7795L116.318 34.6705ZM115.184 35.707C114.712 35.9483 114.178 36.07 113.58 36.07V36.27C114.206 36.27 114.772 36.1424 115.275 35.885L115.184 35.707ZM113.835 34.825C114.361 34.825 114.822 34.702 115.215 34.4524L115.107 34.2836C114.752 34.51 114.329 34.625 113.835 34.625V34.825ZM115.214 34.4531C115.614 34.2055 115.927 33.8691 116.15 33.4457L115.974 33.3523C115.766 33.7449 115.478 34.0545 115.109 34.2829L115.214 34.4531ZM116.151 33.4447C116.374 33.0095 116.485 32.5175 116.485 31.971H116.285C116.285 32.4899 116.18 32.9499 115.973 33.3533L116.151 33.4447ZM116.485 31.971C116.485 31.4019 116.369 30.9029 116.132 30.4774L115.958 30.5746C116.175 30.9651 116.285 31.4294 116.285 31.971H116.485ZM116.133 30.4793C115.91 30.0559 115.597 29.7195 115.197 29.4719L115.092 29.6421C115.461 29.8705 115.749 30.1801 115.957 30.5727L116.133 30.4793ZM115.198 29.4726C114.805 29.223 114.344 29.1 113.818 29.1V29.3C114.312 29.3 114.735 29.415 115.09 29.6414L115.198 29.4726ZM113.818 29.1C113.292 29.1 112.826 29.223 112.423 29.4719L112.528 29.6421C112.895 29.415 113.324 29.3 113.818 29.3V29.1ZM112.423 29.4719C112.021 29.7196 111.704 30.0616 111.469 30.4954L111.645 30.5906C111.864 30.1858 112.158 29.8704 112.528 29.6421L112.423 29.4719ZM111.469 30.4963C111.245 30.9208 111.134 31.4076 111.134 31.954H111.334C111.334 31.4351 111.439 30.9812 111.645 30.5897L111.469 30.4963ZM111.134 31.954C111.134 32.5114 111.244 33.0092 111.468 33.4447L111.646 33.3533C111.439 32.9502 111.334 32.4846 111.334 31.954H111.134ZM111.47 33.4476C111.704 33.87 112.022 34.2058 112.423 34.4531L112.528 34.2829C112.157 34.0542 111.863 33.744 111.644 33.3504L111.47 33.4476ZM112.424 34.4537C112.837 34.702 113.309 34.825 113.835 34.825V34.625C113.341 34.625 112.906 34.51 112.527 34.2823L112.424 34.4537ZM117.83 35.9H116.283V36.1H117.83V35.9ZM116.383 36V33.824H116.183V36H116.383ZM116.382 33.8385L116.671 31.8665L116.473 31.8375L116.184 33.8095L116.382 33.8385ZM116.671 31.8374L116.382 29.8824L116.184 29.9116L116.473 31.8666L116.671 31.8374ZM116.383 29.897V23.862H116.183V29.897H116.383ZM116.283 23.962H117.83V23.762H116.283V23.962ZM117.73 23.862V36H117.93V23.862H117.73Z" fill="#1B234B"/>
</g>
<defs>
<filter id="filter0_d_385_1299" x="0" y="0" width="153" height="68" filterUnits="userSpaceOnUse" color-interpolation-filters="sRGB">
<feFlood flood-opacity="0" result="BackgroundImageFix"/>
<feColorMatrix in="SourceAlpha" type="matrix" values="0 0 0 0 0 0 0 0 0 0 0 0 0 0 0 0 0 0 127 0" result="hardAlpha"/>
<feOffset dy="4"/>
<feGaussianBlur stdDeviation="5"/>
<feComposite in2="hardAlpha" operator="out"/>
<feColorMatrix type="matrix" values="0 0 0 0 0.28776 0 0 0 0 0.37631 0 0 0 0 0.8125 0 0 0 0.25 0"/>
<feBlend mode="normal" in2="BackgroundImageFix" result="effect1_dropShadow_385_1299"/>
<feBlend mode="normal" in="SourceGraphic" in2="effect1_dropShadow_385_1299" result="shape"/>
</filter>
</defs>
</svg>
