<svg width="219" height="80" viewBox="0 0 219 80" fill="none" xmlns="http://www.w3.org/2000/svg">
<g filter="url(#filter0_d_436_1637)">
<path d="M10 22C10 16.3995 10 13.5992 11.0899 11.4601C12.0487 9.57847 13.5785 8.04867 15.4601 7.08993C17.5992 6 20.3995 6 26 6H193C198.601 6 201.401 6 203.54 7.08993C205.422 8.04867 206.951 9.57847 207.91 11.4601C209 13.5992 209 16.3995 209 22V50C209 55.6005 209 58.4008 207.91 60.5399C206.951 62.4215 205.422 63.9513 203.54 64.9101C201.401 66 198.601 66 193 66H26C20.3995 66 17.5992 66 15.4601 64.9101C13.5785 63.9513 12.0487 62.4215 11.0899 60.5399C10 58.4008 10 55.6005 10 50V22Z" fill="#5A75FA"/>
<path d="M76.2901 46V26.568H78.9221V46H76.2901ZM78.0821 37.46V35.052H88.2181V37.46H78.0821ZM78.0821 28.976V26.568H88.6941V28.976H78.0821ZM91.7295 46V32.7H94.2495V46H91.7295ZM92.9895 30.04C92.5228 30.04 92.1402 29.8907 91.8415 29.592C91.5428 29.2747 91.3935 28.8827 91.3935 28.416C91.3935 27.968 91.5428 27.5947 91.8415 27.296C92.1402 26.9787 92.5228 26.82 92.9895 26.82C93.4562 26.82 93.8388 26.9787 94.1375 27.296C94.4362 27.5947 94.5855 27.968 94.5855 28.416C94.5855 28.8827 94.4362 29.2747 94.1375 29.592C93.8388 29.8907 93.4562 30.04 92.9895 30.04ZM107.371 46V38.244C107.371 37.236 107.054 36.4053 106.419 35.752C105.785 35.0987 104.963 34.772 103.955 34.772C103.283 34.772 102.686 34.9213 102.163 35.22C101.641 35.5187 101.23 35.9293 100.931 36.452C100.633 36.9747 100.483 37.572 100.483 38.244L99.4472 37.656C99.4472 36.648 99.6712 35.752 100.119 34.968C100.567 34.184 101.193 33.568 101.995 33.12C102.798 32.6533 103.703 32.42 104.711 32.42C105.719 32.42 106.606 32.672 107.371 33.176C108.155 33.68 108.771 34.3427 109.219 35.164C109.667 35.9667 109.891 36.8253 109.891 37.74V46H107.371ZM97.9632 46V32.7H100.483V46H97.9632ZM113.331 46V32.7H115.851V46H113.331ZM114.591 30.04C114.124 30.04 113.742 29.8907 113.443 29.592C113.144 29.2747 112.995 28.8827 112.995 28.416C112.995 27.968 113.144 27.5947 113.443 27.296C113.742 26.9787 114.124 26.82 114.591 26.82C115.058 26.82 115.44 26.9787 115.739 27.296C116.038 27.5947 116.187 27.968 116.187 28.416C116.187 28.8827 116.038 29.2747 115.739 29.592C115.44 29.8907 115.058 30.04 114.591 30.04ZM123.793 46.28C123.046 46.28 122.337 46.1867 121.665 46C121.011 45.7947 120.405 45.5147 119.845 45.16C119.285 44.7867 118.799 44.348 118.389 43.844L120.013 42.22C120.498 42.8173 121.058 43.2653 121.693 43.564C122.327 43.844 123.037 43.984 123.821 43.984C124.605 43.984 125.211 43.8533 125.641 43.592C126.07 43.312 126.285 42.9293 126.285 42.444C126.285 41.9587 126.107 41.5853 125.753 41.324C125.417 41.044 124.978 40.82 124.437 40.652C123.895 40.4653 123.317 40.288 122.701 40.12C122.103 39.9333 121.534 39.7 120.993 39.42C120.451 39.14 120.003 38.7573 119.649 38.272C119.313 37.7867 119.145 37.1427 119.145 36.34C119.145 35.5373 119.341 34.8467 119.733 34.268C120.125 33.6707 120.666 33.2133 121.357 32.896C122.066 32.5787 122.915 32.42 123.905 32.42C124.95 32.42 125.874 32.6067 126.677 32.98C127.498 33.3347 128.17 33.876 128.693 34.604L127.069 36.228C126.695 35.7427 126.229 35.3693 125.669 35.108C125.127 34.8467 124.511 34.716 123.821 34.716C123.093 34.716 122.533 34.8467 122.141 35.108C121.767 35.3507 121.581 35.696 121.581 36.144C121.581 36.592 121.749 36.9373 122.085 37.18C122.421 37.4227 122.859 37.628 123.401 37.796C123.961 37.964 124.539 38.1413 125.137 38.328C125.734 38.496 126.303 38.7293 126.845 39.028C127.386 39.3267 127.825 39.728 128.161 40.232C128.515 40.736 128.693 41.3987 128.693 42.22C128.693 43.4707 128.245 44.46 127.349 45.188C126.471 45.916 125.286 46.28 123.793 46.28ZM140.922 46V38.244C140.922 37.236 140.605 36.4053 139.97 35.752C139.335 35.0987 138.514 34.772 137.506 34.772C136.834 34.772 136.237 34.9213 135.714 35.22C135.191 35.5187 134.781 35.9293 134.482 36.452C134.183 36.9747 134.034 37.572 134.034 38.244L132.998 37.656C132.998 36.648 133.222 35.752 133.67 34.968C134.118 34.184 134.743 33.568 135.546 33.12C136.349 32.6533 137.254 32.42 138.262 32.42C139.27 32.42 140.157 32.644 140.922 33.092C141.706 33.54 142.322 34.1653 142.77 34.968C143.218 35.7707 143.442 36.6947 143.442 37.74V46H140.922ZM131.514 46V26.008H134.034V46H131.514Z" fill="#F6F6F7"/>
<path d="M76.2901 46H76.1901V46.1H76.2901V46ZM76.2901 26.568V26.468H76.1901V26.568H76.2901ZM78.9221 26.568H79.0221V26.468H78.9221V26.568ZM78.9221 46V46.1H79.0221V46H78.9221ZM78.0821 37.46H77.9821V37.56H78.0821V37.46ZM78.0821 35.052V34.952H77.9821V35.052H78.0821ZM88.2181 35.052H88.3181V34.952H88.2181V35.052ZM88.2181 37.46V37.56H88.3181V37.46H88.2181ZM78.0821 28.976H77.9821V29.076H78.0821V28.976ZM78.0821 26.568V26.468H77.9821V26.568H78.0821ZM88.6941 26.568H88.7941V26.468H88.6941V26.568ZM88.6941 28.976V29.076H88.7941V28.976H88.6941ZM76.3901 46V26.568H76.1901V46H76.3901ZM76.2901 26.668H78.9221V26.468H76.2901V26.668ZM78.8221 26.568V46H79.0221V26.568H78.8221ZM78.9221 45.9H76.2901V46.1H78.9221V45.9ZM78.1821 37.46V35.052H77.9821V37.46H78.1821ZM78.0821 35.152H88.2181V34.952H78.0821V35.152ZM88.1181 35.052V37.46H88.3181V35.052H88.1181ZM88.2181 37.36H78.0821V37.56H88.2181V37.36ZM78.1821 28.976V26.568H77.9821V28.976H78.1821ZM78.0821 26.668H88.6941V26.468H78.0821V26.668ZM88.5941 26.568V28.976H88.7941V26.568H88.5941ZM88.6941 28.876H78.0821V29.076H88.6941V28.876ZM91.7295 46H91.6295V46.1H91.7295V46ZM91.7295 32.7V32.6H91.6295V32.7H91.7295ZM94.2495 32.7H94.3495V32.6H94.2495V32.7ZM94.2495 46V46.1H94.3495V46H94.2495ZM91.8415 29.592L91.7687 29.6606L91.7708 29.6627L91.8415 29.592ZM91.8415 27.296L91.9123 27.3667L91.9143 27.3645L91.8415 27.296ZM94.1375 27.296L94.0647 27.3646L94.0668 27.3667L94.1375 27.296ZM94.1375 29.592L94.2083 29.6627L94.2103 29.6605L94.1375 29.592ZM91.8295 46V32.7H91.6295V46H91.8295ZM91.7295 32.8H94.2495V32.6H91.7295V32.8ZM94.1495 32.7V46H94.3495V32.7H94.1495ZM94.2495 45.9H91.7295V46.1H94.2495V45.9ZM92.9895 29.94C92.5463 29.94 92.1901 29.7991 91.9122 29.5213L91.7708 29.6627C92.0903 29.9822 92.4994 30.14 92.9895 30.14V29.94ZM91.9143 29.5235C91.6344 29.2261 91.4935 28.8592 91.4935 28.416H91.2935C91.2935 28.9062 91.4513 29.3233 91.7687 29.6605L91.9143 29.5235ZM91.4935 28.416C91.4935 27.9927 91.6335 27.6454 91.9122 27.3667L91.7708 27.2253C91.4522 27.5439 91.2935 27.9433 91.2935 28.416H91.4935ZM91.9143 27.3645C92.1927 27.0688 92.5482 26.92 92.9895 26.92V26.72C92.4975 26.72 92.0877 26.8885 91.7687 27.2275L91.9143 27.3645ZM92.9895 26.92C93.4308 26.92 93.7864 27.0688 94.0647 27.3645L94.2103 27.2275C93.8913 26.8885 93.4816 26.72 92.9895 26.72V26.92ZM94.0668 27.3667C94.3455 27.6454 94.4855 27.9927 94.4855 28.416H94.6855C94.6855 27.9433 94.5269 27.5439 94.2082 27.2253L94.0668 27.3667ZM94.4855 28.416C94.4855 28.8592 94.3446 29.2261 94.0647 29.5235L94.2103 29.6605C94.5278 29.3233 94.6855 28.9062 94.6855 28.416H94.4855ZM94.0668 29.5213C93.7889 29.7991 93.4327 29.94 92.9895 29.94V30.14C93.4797 30.14 93.8888 29.9822 94.2082 29.6627L94.0668 29.5213ZM107.371 46H107.271V46.1H107.371V46ZM106.419 35.752L106.491 35.6823L106.419 35.752ZM102.163 35.22L102.114 35.1332L102.163 35.22ZM100.483 38.244L100.434 38.331L100.583 38.4157V38.244H100.483ZM99.4472 37.656H99.3472V37.7142L99.3979 37.743L99.4472 37.656ZM101.995 33.12L102.044 33.2073L102.045 33.2065L101.995 33.12ZM107.371 33.176L107.316 33.2595L107.317 33.2601L107.371 33.176ZM109.219 35.164L109.131 35.2119L109.132 35.2127L109.219 35.164ZM109.891 46V46.1H109.991V46H109.891ZM97.9632 46H97.8632V46.1H97.9632V46ZM97.9632 32.7V32.6H97.8632V32.7H97.9632ZM100.483 32.7H100.583V32.6H100.483V32.7ZM100.483 46V46.1H100.583V46H100.483ZM107.471 46V38.244H107.271V46H107.471ZM107.471 38.244C107.471 37.213 107.146 36.3564 106.491 35.6823L106.348 35.8217C106.962 36.4543 107.271 37.259 107.271 38.244H107.471ZM106.491 35.6823C105.835 35.0074 104.987 34.672 103.955 34.672V34.872C104.939 34.872 105.734 35.1899 106.348 35.8217L106.491 35.6823ZM103.955 34.672C103.268 34.672 102.653 34.8249 102.114 35.1332L102.213 35.3068C102.719 35.0178 103.299 34.872 103.955 34.872V34.672ZM102.114 35.1332C101.575 35.4407 101.152 35.8642 100.844 36.4024L101.018 36.5016C101.308 35.9944 101.706 35.5966 102.213 35.3068L102.114 35.1332ZM100.844 36.4024C100.536 36.9419 100.383 37.5567 100.383 38.244H100.583C100.583 37.5873 100.729 37.0075 101.018 36.5016L100.844 36.4024ZM100.533 38.157L99.4966 37.569L99.3979 37.743L100.434 38.331L100.533 38.157ZM99.5472 37.656C99.5472 36.6633 99.7677 35.7848 100.206 35.0176L100.032 34.9184C99.5748 35.7192 99.3472 36.6327 99.3472 37.656H99.5472ZM100.206 35.0176C100.645 34.2497 101.257 33.6466 102.044 33.2073L101.946 33.0327C101.128 33.4894 100.49 34.1183 100.032 34.9184L100.206 35.0176ZM102.045 33.2065C102.832 32.7494 103.719 32.52 104.711 32.52V32.32C103.687 32.32 102.764 32.5573 101.945 33.0335L102.045 33.2065ZM104.711 32.52C105.702 32.52 106.569 32.7673 107.316 33.2595L107.426 33.0925C106.643 32.5767 105.737 32.32 104.711 32.32V32.52ZM107.317 33.2601C108.087 33.755 108.691 34.4052 109.131 35.2119L109.307 35.1161C108.851 34.2801 108.223 33.605 107.425 33.0919L107.317 33.2601ZM109.132 35.2127C109.572 36.0006 109.791 36.8425 109.791 37.74H109.991C109.991 36.8082 109.763 35.9327 109.307 35.1153L109.132 35.2127ZM109.791 37.74V46H109.991V37.74H109.791ZM109.891 45.9H107.371V46.1H109.891V45.9ZM98.0632 46V32.7H97.8632V46H98.0632ZM97.9632 32.8H100.483V32.6H97.9632V32.8ZM100.383 32.7V46H100.583V32.7H100.383ZM100.483 45.9H97.9632V46.1H100.483V45.9ZM113.331 46H113.231V46.1H113.331V46ZM113.331 32.7V32.6H113.231V32.7H113.331ZM115.851 32.7H115.951V32.6H115.851V32.7ZM115.851 46V46.1H115.951V46H115.851ZM113.443 29.592L113.37 29.6606L113.372 29.6627L113.443 29.592ZM113.443 27.296L113.514 27.3667L113.516 27.3645L113.443 27.296ZM115.739 27.296L115.666 27.3646L115.668 27.3667L115.739 27.296ZM115.739 29.592L115.81 29.6627L115.812 29.6605L115.739 29.592ZM113.431 46V32.7H113.231V46H113.431ZM113.331 32.8H115.851V32.6H113.331V32.8ZM115.751 32.7V46H115.951V32.7H115.751ZM115.851 45.9H113.331V46.1H115.851V45.9ZM114.591 29.94C114.148 29.94 113.792 29.7991 113.514 29.5213L113.372 29.6627C113.692 29.9822 114.101 30.14 114.591 30.14V29.94ZM113.516 29.5235C113.236 29.2261 113.095 28.8592 113.095 28.416H112.895C112.895 28.9062 113.053 29.3233 113.37 29.6605L113.516 29.5235ZM113.095 28.416C113.095 27.9927 113.235 27.6454 113.514 27.3667L113.372 27.2253C113.054 27.5439 112.895 27.9433 112.895 28.416H113.095ZM113.516 27.3645C113.794 27.0688 114.15 26.92 114.591 26.92V26.72C114.099 26.72 113.689 26.8885 113.37 27.2275L113.516 27.3645ZM114.591 26.92C115.032 26.92 115.388 27.0688 115.666 27.3645L115.812 27.2275C115.493 26.8885 115.083 26.72 114.591 26.72V26.92ZM115.668 27.3667C115.947 27.6454 116.087 27.9927 116.087 28.416H116.287C116.287 27.9433 116.128 27.5439 115.81 27.2253L115.668 27.3667ZM116.087 28.416C116.087 28.8592 115.946 29.2261 115.666 29.5235L115.812 29.6605C116.129 29.3233 116.287 28.9062 116.287 28.416H116.087ZM115.668 29.5213C115.391 29.7991 115.034 29.94 114.591 29.94V30.14C115.081 30.14 115.49 29.9822 115.81 29.6627L115.668 29.5213ZM121.665 46L121.635 46.0955L121.638 46.0964L121.665 46ZM119.845 45.16L119.789 45.2432L119.791 45.2445L119.845 45.16ZM118.389 43.844L118.318 43.7733L118.254 43.8372L118.311 43.9072L118.389 43.844ZM120.013 42.22L120.09 42.1569L120.02 42.0709L119.942 42.1493L120.013 42.22ZM121.693 43.564L121.65 43.6545L121.652 43.6555L121.693 43.564ZM125.641 43.592L125.693 43.6775L125.695 43.6758L125.641 43.592ZM125.753 41.324L125.689 41.401L125.693 41.4045L125.753 41.324ZM124.437 40.652L124.404 40.7466L124.407 40.7475L124.437 40.652ZM122.701 40.12L122.671 40.2155L122.674 40.2165L122.701 40.12ZM120.993 39.42L121.039 39.3312L120.993 39.42ZM119.649 38.272L119.567 38.3289L119.568 38.331L119.649 38.272ZM119.733 34.268L119.816 34.3241L119.816 34.3229L119.733 34.268ZM121.357 32.896L121.316 32.8047L121.315 32.8051L121.357 32.896ZM126.677 32.98L126.635 33.0707L126.637 33.0718L126.677 32.98ZM128.693 34.604L128.764 34.6747L128.824 34.6147L128.774 34.5457L128.693 34.604ZM127.069 36.228L126.99 36.289L127.059 36.3792L127.14 36.2987L127.069 36.228ZM125.669 35.108L125.625 35.1981L125.627 35.1986L125.669 35.108ZM122.141 35.108L122.195 35.1918L122.196 35.1912L122.141 35.108ZM122.085 37.18L122.143 37.0989L122.085 37.18ZM123.401 37.796L123.371 37.8915L123.372 37.8918L123.401 37.796ZM125.137 38.328L125.107 38.4235L125.11 38.4243L125.137 38.328ZM126.845 39.028L126.796 39.1156L126.845 39.028ZM128.161 40.232L128.078 40.2875L128.079 40.2895L128.161 40.232ZM127.349 45.188L127.286 45.1104L127.285 45.111L127.349 45.188ZM123.793 46.18C123.055 46.18 122.354 46.0877 121.692 45.9036L121.638 46.0964C122.319 46.2856 123.038 46.38 123.793 46.38V46.18ZM121.695 45.9046C121.049 45.7018 120.451 45.4254 119.898 45.0755L119.791 45.2445C120.359 45.6039 120.973 45.8876 121.635 46.0954L121.695 45.9046ZM119.9 45.0768C119.348 44.7088 118.87 44.2768 118.466 43.7808L118.311 43.9072C118.728 44.4192 119.221 44.8645 119.789 45.2432L119.9 45.0768ZM118.46 43.9147L120.084 42.2907L119.942 42.1493L118.318 43.7733L118.46 43.9147ZM119.935 42.2831C120.429 42.8909 121.001 43.3488 121.65 43.6545L121.735 43.4735C121.116 43.1818 120.567 42.7438 120.09 42.1569L119.935 42.2831ZM121.652 43.6555C122.301 43.9418 123.025 44.084 123.821 44.084V43.884C123.049 43.884 122.354 43.7462 121.733 43.4725L121.652 43.6555ZM123.821 44.084C124.614 44.084 125.241 43.9522 125.693 43.6774L125.589 43.5066C125.182 43.7545 124.596 43.884 123.821 43.884V44.084ZM125.695 43.6758C126.151 43.3785 126.385 42.9653 126.385 42.444H126.185C126.185 42.8933 125.989 43.2455 125.586 43.5082L125.695 43.6758ZM126.385 42.444C126.385 41.9306 126.195 41.5258 125.812 41.2435L125.693 41.4045C126.02 41.6449 126.185 41.9867 126.185 42.444H126.385ZM125.817 41.2472C125.468 40.9567 125.017 40.7273 124.466 40.5565L124.407 40.7475C124.939 40.9127 125.365 41.1313 125.689 41.4008L125.817 41.2472ZM124.469 40.5575C123.926 40.37 123.345 40.192 122.727 40.0235L122.674 40.2165C123.289 40.384 123.865 40.5607 124.404 40.7465L124.469 40.5575ZM122.731 40.0246C122.139 39.8396 121.575 39.6084 121.039 39.3312L120.947 39.5088C121.493 39.7916 122.068 40.0271 122.671 40.2154L122.731 40.0246ZM121.039 39.3312C120.511 39.0582 120.075 38.6857 119.73 38.213L119.568 38.331C119.932 38.829 120.392 39.2218 120.947 39.5088L121.039 39.3312ZM119.731 38.2151C119.41 37.7515 119.245 37.1295 119.245 36.34H119.045C119.045 37.1559 119.216 37.8218 119.567 38.3289L119.731 38.2151ZM119.245 36.34C119.245 35.5543 119.436 34.8838 119.816 34.3241L119.65 34.2119C119.245 34.8095 119.045 35.5204 119.045 36.34H119.245ZM119.816 34.3229C120.197 33.7422 120.724 33.2969 121.399 32.9869L121.315 32.8051C120.608 33.1298 120.052 33.5991 119.649 34.2131L119.816 34.3229ZM121.398 32.9873C122.091 32.677 122.926 32.52 123.905 32.52V32.32C122.905 32.32 122.041 32.4803 121.316 32.8047L121.398 32.9873ZM123.905 32.52C124.938 32.52 125.847 32.7045 126.635 33.0707L126.719 32.8893C125.901 32.5088 124.962 32.32 123.905 32.32V32.52ZM126.637 33.0718C127.442 33.4193 128.099 33.949 128.612 34.6623L128.774 34.5457C128.241 33.803 127.554 33.2501 126.716 32.8882L126.637 33.0718ZM128.622 34.5333L126.998 36.1573L127.14 36.2987L128.764 34.6747L128.622 34.5333ZM127.148 36.167C126.765 35.6689 126.285 35.2854 125.711 35.0174L125.627 35.1986C126.172 35.4532 126.626 35.8165 126.99 36.289L127.148 36.167ZM125.712 35.0179C125.155 34.7492 124.524 34.616 123.821 34.616V34.816C124.499 34.816 125.099 34.9442 125.625 35.1981L125.712 35.0179ZM123.821 34.616C123.083 34.616 122.5 34.748 122.085 35.0248L122.196 35.1912C122.565 34.9453 123.103 34.816 123.821 34.816V34.616ZM122.086 35.0242C121.684 35.2854 121.481 35.6624 121.481 36.144H121.681C121.681 35.7296 121.851 35.4159 122.195 35.1918L122.086 35.0242ZM121.481 36.144C121.481 36.6211 121.662 36.9979 122.026 37.2611L122.143 37.0989C121.836 36.8768 121.681 36.5629 121.681 36.144H121.481ZM122.026 37.2611C122.374 37.5119 122.823 37.7214 123.371 37.8915L123.43 37.7005C122.896 37.5346 122.468 37.3334 122.143 37.0989L122.026 37.2611ZM123.372 37.8918C123.932 38.0597 124.51 38.2369 125.107 38.4234L125.167 38.2326C124.569 38.0458 123.99 37.8683 123.43 37.7002L123.372 37.8918ZM125.11 38.4243C125.7 38.5902 126.262 38.8206 126.796 39.1156L126.893 38.9404C126.345 38.6381 125.769 38.4018 125.164 38.2317L125.11 38.4243ZM126.796 39.1156C127.324 39.4066 127.751 39.7971 128.078 40.2875L128.244 40.1765C127.899 39.6589 127.448 39.2467 126.893 38.9404L126.796 39.1156ZM128.079 40.2895C128.418 40.7719 128.593 41.4125 128.593 42.22H128.793C128.793 41.3848 128.612 40.7001 128.243 40.1744L128.079 40.2895ZM128.593 42.22C128.593 43.4434 128.156 44.4031 127.286 45.1104L127.412 45.2656C128.333 44.5169 128.793 43.4979 128.793 42.22H128.593ZM127.285 45.111C126.43 45.8201 125.27 46.18 123.793 46.18V46.38C125.302 46.38 126.512 46.0119 127.413 45.265L127.285 45.111ZM140.922 46H140.822V46.1H140.922V46ZM139.97 35.752L140.042 35.6823L139.97 35.752ZM135.714 35.22L135.664 35.1332L135.714 35.22ZM134.034 38.244L133.985 38.331L134.134 38.4157V38.244H134.034ZM132.998 37.656H132.898V37.7142L132.949 37.743L132.998 37.656ZM135.546 33.12L135.595 33.2073L135.596 33.2065L135.546 33.12ZM140.922 33.092L140.871 33.1783L140.872 33.1788L140.922 33.092ZM142.77 34.968L142.857 34.9193L142.77 34.968ZM143.442 46V46.1H143.542V46H143.442ZM131.514 46H131.414V46.1H131.514V46ZM131.514 26.008V25.908H131.414V26.008H131.514ZM134.034 26.008H134.134V25.908H134.034V26.008ZM134.034 46V46.1H134.134V46H134.034ZM141.022 46V38.244H140.822V46H141.022ZM141.022 38.244C141.022 37.213 140.697 36.3564 140.042 35.6823L139.898 35.8217C140.513 36.4543 140.822 37.259 140.822 38.244H141.022ZM140.042 35.6823C139.386 35.0074 138.538 34.672 137.506 34.672V34.872C138.49 34.872 139.285 35.1899 139.898 35.8217L140.042 35.6823ZM137.506 34.672C136.819 34.672 136.204 34.8249 135.664 35.1332L135.764 35.3068C136.269 35.0178 136.849 34.872 137.506 34.872V34.672ZM135.664 35.1332C135.126 35.4407 134.703 35.8642 134.395 36.4024L134.569 36.5016C134.859 35.9944 135.256 35.5966 135.764 35.3068L135.664 35.1332ZM134.395 36.4024C134.087 36.9419 133.934 37.5567 133.934 38.244H134.134C134.134 37.5873 134.28 37.0075 134.569 36.5016L134.395 36.4024ZM134.083 38.157L133.047 37.569L132.949 37.743L133.985 38.331L134.083 38.157ZM133.098 37.656C133.098 36.6633 133.318 35.7848 133.757 35.0176L133.583 34.9184C133.126 35.7192 132.898 36.6327 132.898 37.656H133.098ZM133.757 35.0176C134.196 34.2497 134.808 33.6466 135.595 33.2073L135.497 33.0327C134.679 33.4894 134.04 34.1183 133.583 34.9184L133.757 35.0176ZM135.596 33.2065C136.382 32.7494 137.27 32.52 138.262 32.52V32.32C137.238 32.32 136.315 32.5573 135.496 33.0335L135.596 33.2065ZM138.262 32.52C139.255 32.52 140.123 32.7404 140.871 33.1783L140.973 33.0057C140.19 32.5476 139.285 32.32 138.262 32.32V32.52ZM140.872 33.1788C141.64 33.6176 142.243 34.2297 142.683 35.0167L142.857 34.9193C142.401 34.101 141.772 33.4624 140.972 33.0052L140.872 33.1788ZM142.683 35.0167C143.121 35.8026 143.342 36.7094 143.342 37.74H143.542C143.542 36.68 143.315 35.7388 142.857 34.9193L142.683 35.0167ZM143.342 37.74V46H143.542V37.74H143.342ZM143.442 45.9H140.922V46.1H143.442V45.9ZM131.614 46V26.008H131.414V46H131.614ZM131.514 26.108H134.034V25.908H131.514V26.108ZM133.934 26.008V46H134.134V26.008H133.934ZM134.034 45.9H131.514V46.1H134.034V45.9Z" fill="#1B234B"/>
</g>
<defs>
<filter id="filter0_d_436_1637" x="0" y="0" width="219" height="80" filterUnits="userSpaceOnUse" color-interpolation-filters="sRGB">
<feFlood flood-opacity="0" result="BackgroundImageFix"/>
<feColorMatrix in="SourceAlpha" type="matrix" values="0 0 0 0 0 0 0 0 0 0 0 0 0 0 0 0 0 0 127 0" result="hardAlpha"/>
<feOffset dy="4"/>
<feGaussianBlur stdDeviation="5"/>
<feComposite in2="hardAlpha" operator="out"/>
<feColorMatrix type="matrix" values="0 0 0 0 0.28776 0 0 0 0 0.37631 0 0 0 0 0.8125 0 0 0 0.25 0"/>
<feBlend mode="normal" in2="BackgroundImageFix" result="effect1_dropShadow_436_1637"/>
<feBlend mode="normal" in="SourceGraphic" in2="effect1_dropShadow_436_1637" result="shape"/>
</filter>
</defs>
</svg>
