<svg width="375" height="413" viewBox="0 0 375 413" fill="none" xmlns="http://www.w3.org/2000/svg">
<path d="M281.591 295.693C280.588 295.344 279.718 294.692 279.102 293.827C278.486 292.962 278.155 291.927 278.154 290.865L278.143 266.975L278.117 262.844L277.932 107.462C277.933 107.25 277.952 107.039 277.989 106.831L277.93 106.184L277.901 83.2735L277.902 79.0288C277.903 75.7119 275.212 73.0237 271.895 73.0274L97.8209 73.2238C94.5104 73.2276 91.8284 75.9119 91.8277 79.2224L91.8267 83.4834L92.0633 291.108C92.0648 292.171 91.7375 293.209 91.1262 294.079C90.515 294.949 89.6497 295.609 88.6489 295.968C84.7414 297.342 81.4473 300.056 79.3521 303.629C77.2569 307.202 76.4964 311.402 77.2055 315.483C77.9146 319.564 80.0474 323.261 83.2251 325.918C86.4028 328.574 90.4195 330.018 94.5614 329.993L275.825 329.852C280.036 329.959 284.144 328.548 287.401 325.877C290.657 323.205 292.843 319.452 293.561 315.301C294.278 311.151 293.479 306.881 291.308 303.271C289.138 299.662 285.741 296.954 281.739 295.641L281.591 295.693ZM242.26 296.041L201.083 296.033L196.52 296.016L127.87 296.103C121.113 296.08 114.637 293.396 109.843 288.634C105.049 283.871 102.323 277.413 102.255 270.655L102.215 204.129L102.322 195.368L102.196 83.5008L267.597 83.2054L267.939 270.373C267.929 277.179 265.22 283.704 260.406 288.516C255.592 293.327 249.066 296.034 242.26 296.041Z" fill="#C6D1D5"/>
<path d="M309.655 128.361C315.963 128.373 322.008 130.888 326.464 135.353C330.919 139.818 333.422 145.868 333.421 152.176L333.517 216.794C333.495 223.098 330.977 229.138 326.515 233.592C322.052 238.045 316.007 240.551 309.702 240.56L278.181 240.597L278.177 257.685L309.831 257.63C315.203 257.637 320.524 256.583 325.488 254.529C330.452 252.474 334.962 249.46 338.758 245.658C342.554 241.856 345.562 237.343 347.609 232.375C349.656 227.408 350.702 222.086 350.687 216.714L350.591 152.096C350.6 146.719 349.547 141.394 347.491 136.426C345.436 131.457 342.419 126.945 338.613 123.146C334.808 119.348 330.289 116.339 325.317 114.293C320.345 112.247 315.018 111.204 309.641 111.223L277.988 111.278L277.984 128.366L309.655 128.361Z" fill="#C6D1D5"/>
<path d="M245.602 231.641L245.519 248.979" stroke="white" stroke-width="11.8328" stroke-linecap="round" stroke-linejoin="round"/>
<path d="M246.334 104.419L245.735 207.371" stroke="white" stroke-width="11.8328" stroke-linecap="round" stroke-linejoin="round"/>
<path d="M299.374 114.773C297.255 114.752 295.521 116.453 295.499 118.572C295.478 120.691 297.179 122.425 299.298 122.447L299.374 114.773ZM338.986 157.147C339.079 159.264 340.871 160.904 342.988 160.811C345.105 160.717 346.746 158.925 346.652 156.808L338.986 157.147ZM331.309 127.562L333.834 124.673L331.309 127.562ZM315.962 119.89L315.211 123.652L315.962 119.89ZM340.261 141.631L343.905 140.43L340.261 141.631ZM299.336 118.61C299.298 122.447 299.298 122.447 299.297 122.447C299.297 122.447 299.297 122.447 299.297 122.447C299.297 122.447 299.298 122.447 299.298 122.447C299.299 122.447 299.3 122.447 299.302 122.447C299.306 122.447 299.313 122.447 299.322 122.447C299.341 122.447 299.369 122.447 299.407 122.448C299.482 122.449 299.596 122.451 299.744 122.453C300.039 122.458 300.471 122.467 301.008 122.481C302.084 122.508 303.579 122.557 305.251 122.642C308.661 122.815 312.572 123.126 315.211 123.652L316.712 116.127C313.474 115.481 309.072 115.152 305.639 114.978C303.889 114.89 302.329 114.839 301.206 114.81C300.644 114.795 300.19 114.786 299.875 114.781C299.717 114.778 299.594 114.776 299.509 114.775C299.467 114.775 299.434 114.774 299.412 114.774C299.4 114.774 299.391 114.774 299.385 114.774C299.382 114.774 299.38 114.774 299.378 114.774C299.377 114.773 299.376 114.773 299.376 114.773C299.375 114.773 299.375 114.773 299.375 114.773C299.375 114.773 299.374 114.773 299.336 118.61ZM315.211 123.652C321.377 124.882 325.805 127.848 328.784 130.451L333.834 124.673C330.183 121.483 324.573 117.695 316.712 116.127L315.211 123.652ZM328.784 130.451C330.108 131.608 331.723 133.593 333.23 135.968C334.724 138.323 335.951 140.807 336.617 142.831L343.905 140.43C342.99 137.653 341.444 134.592 339.71 131.857C337.988 129.143 335.917 126.493 333.834 124.673L328.784 130.451ZM336.617 142.831C337.587 145.774 338.19 149.322 338.546 152.241C338.722 153.678 338.832 154.919 338.899 155.797C338.932 156.235 338.954 156.581 338.968 156.813C338.975 156.929 338.98 157.017 338.982 157.073C338.984 157.102 338.985 157.122 338.986 157.134C338.986 157.141 338.986 157.145 338.986 157.147C338.986 157.148 338.986 157.148 338.986 157.148C338.986 157.148 338.986 157.148 338.986 157.148C338.986 157.148 338.986 157.147 338.986 157.147C338.986 157.147 338.986 157.147 342.819 156.978C346.652 156.808 346.652 156.808 346.652 156.808C346.652 156.807 346.652 156.807 346.652 156.806C346.652 156.806 346.652 156.805 346.652 156.804C346.652 156.801 346.652 156.799 346.652 156.796C346.651 156.789 346.651 156.781 346.65 156.77C346.649 156.749 346.648 156.719 346.646 156.682C346.642 156.607 346.636 156.5 346.628 156.364C346.612 156.091 346.587 155.702 346.551 155.216C346.477 154.246 346.355 152.886 346.163 151.311C345.783 148.204 345.107 144.078 343.905 140.43L336.617 142.831Z" fill="#F4FDFF"/>
<path d="M167.606 314.286L272.477 314.286" stroke="#F4FDFF" stroke-width="12.7891" stroke-linecap="round"/>
</svg>
