<svg width="136" height="68" viewBox="0 0 136 68" fill="none" xmlns="http://www.w3.org/2000/svg">
<g filter="url(#filter0_d_389_1504)">
<path d="M10 22C10 16.3995 10 13.5992 11.0899 11.4601C12.0487 9.57847 13.5785 8.04867 15.4601 7.08993C17.5992 6 20.3995 6 26 6H110C115.601 6 118.401 6 120.54 7.08993C122.422 8.04867 123.951 9.57847 124.91 11.4601C126 13.5992 126 16.3995 126 22V38C126 43.6005 126 46.4008 124.91 48.5399C123.951 50.4215 122.422 51.9513 120.54 52.9101C118.401 54 115.601 54 110 54H26C20.3995 54 17.5992 54 15.4601 52.9101C13.5785 51.9513 12.0487 50.4215 11.0899 48.5399C10 46.4008 10 43.6005 10 38V22Z" fill="#5A75FA"/>
<path d="M38.9006 36V24.542H40.4986V36H38.9006ZM34.8886 25.664V24.202H44.4936V25.664H34.8886ZM43.908 36V27.925H45.438V36H43.908ZM45.438 31.393L44.86 31.138C44.86 30.1067 45.098 29.285 45.574 28.673C46.05 28.061 46.7357 27.755 47.631 27.755C48.039 27.755 48.4073 27.8287 48.736 27.976C49.0647 28.112 49.3707 28.3443 49.654 28.673L48.651 29.71C48.481 29.5287 48.294 29.3983 48.09 29.319C47.886 29.2397 47.648 29.2 47.376 29.2C46.8093 29.2 46.3447 29.3813 45.982 29.744C45.6193 30.1067 45.438 30.6563 45.438 31.393ZM52.8258 36.068L49.3238 27.925H51.0238L53.6248 34.3H53.0808L55.8178 27.925H57.5178L53.7438 36.068H52.8258ZM50.5138 39.383L52.8938 34.504L53.7438 36.068L52.2138 39.383H50.5138ZM65.0604 36.17C64.3237 36.17 63.6551 35.9887 63.0544 35.626C62.4537 35.252 61.9777 34.7477 61.6264 34.113C61.2864 33.4783 61.1164 32.7643 61.1164 31.971C61.1164 31.1777 61.2864 30.4637 61.6264 29.829C61.9777 29.1943 62.4481 28.69 63.0374 28.316C63.6381 27.942 64.3124 27.755 65.0604 27.755C65.6724 27.755 66.2164 27.8853 66.6924 28.146C67.1797 28.3953 67.5707 28.7467 67.8654 29.2C68.1601 29.642 68.3244 30.1577 68.3584 30.747V33.178C68.3244 33.756 68.1601 34.2717 67.8654 34.725C67.5821 35.1783 67.1967 35.5353 66.7094 35.796C66.2334 36.0453 65.6837 36.17 65.0604 36.17ZM65.3154 34.725C66.0747 34.725 66.6867 34.47 67.1514 33.96C67.6161 33.4387 67.8484 32.7757 67.8484 31.971C67.8484 31.4157 67.7407 30.934 67.5254 30.526C67.3214 30.1067 67.0267 29.7837 66.6414 29.557C66.2561 29.319 65.8084 29.2 65.2984 29.2C64.7884 29.2 64.3351 29.319 63.9384 29.557C63.5531 29.795 63.2471 30.1237 63.0204 30.543C62.8051 30.951 62.6974 31.4213 62.6974 31.954C62.6974 32.498 62.8051 32.9797 63.0204 33.399C63.2471 33.807 63.5587 34.13 63.9554 34.368C64.3521 34.606 64.8054 34.725 65.3154 34.725ZM67.7464 36V33.824L68.0354 31.852L67.7464 29.897V27.925H69.2934V36H67.7464ZM74.4619 39.553C73.6346 39.553 72.8979 39.4 72.2519 39.094C71.6173 38.788 71.1073 38.3573 70.7219 37.802L71.7079 36.799C72.0366 37.2183 72.4276 37.5357 72.8809 37.751C73.3343 37.9777 73.8726 38.091 74.4959 38.091C75.3233 38.091 75.9749 37.87 76.4509 37.428C76.9383 36.9973 77.1819 36.4137 77.1819 35.677V33.671L77.4539 31.852L77.1819 30.05V27.925H78.7119V35.677C78.7119 36.4477 78.5306 37.122 78.1679 37.7C77.8166 38.278 77.3179 38.7313 76.6719 39.06C76.0373 39.3887 75.3006 39.553 74.4619 39.553ZM74.4619 35.864C73.7253 35.864 73.0623 35.6883 72.4729 35.337C71.8949 34.9857 71.4359 34.504 71.0959 33.892C70.7559 33.2687 70.5859 32.5717 70.5859 31.801C70.5859 31.0303 70.7559 30.3447 71.0959 29.744C71.4359 29.132 71.8949 28.6503 72.4729 28.299C73.0623 27.9363 73.7253 27.755 74.4619 27.755C75.0966 27.755 75.6576 27.8797 76.1449 28.129C76.6323 28.3783 77.0176 28.7297 77.3009 29.183C77.5956 29.625 77.7543 30.1463 77.7769 30.747V32.889C77.7429 33.4783 77.5786 33.9997 77.2839 34.453C77.0006 34.895 76.6153 35.2407 76.1279 35.49C75.6406 35.7393 75.0853 35.864 74.4619 35.864ZM74.7679 34.419C75.2666 34.419 75.7029 34.3113 76.0769 34.096C76.4623 33.8807 76.7569 33.5803 76.9609 33.195C77.1649 32.7983 77.2669 32.3393 77.2669 31.818C77.2669 31.2967 77.1593 30.8433 76.9439 30.458C76.7399 30.0613 76.4509 29.7553 76.0769 29.54C75.7029 29.3133 75.2609 29.2 74.7509 29.2C74.2409 29.2 73.7933 29.3133 73.4079 29.54C73.0226 29.7553 72.7166 30.0613 72.4899 30.458C72.2746 30.8433 72.1669 31.291 72.1669 31.801C72.1669 32.311 72.2746 32.7643 72.4899 33.161C72.7166 33.5577 73.0226 33.8693 73.4079 34.096C73.8046 34.3113 74.2579 34.419 74.7679 34.419ZM83.9837 36.17C83.247 36.17 82.5783 35.9887 81.9777 35.626C81.377 35.252 80.901 34.7477 80.5497 34.113C80.2097 33.4783 80.0397 32.7643 80.0397 31.971C80.0397 31.1777 80.2097 30.4637 80.5497 29.829C80.901 29.1943 81.3713 28.69 81.9607 28.316C82.5613 27.942 83.2357 27.755 83.9837 27.755C84.5957 27.755 85.1397 27.8853 85.6157 28.146C86.103 28.3953 86.494 28.7467 86.7887 29.2C87.0833 29.642 87.2477 30.1577 87.2817 30.747V33.178C87.2477 33.756 87.0833 34.2717 86.7887 34.725C86.5053 35.1783 86.12 35.5353 85.6327 35.796C85.1567 36.0453 84.607 36.17 83.9837 36.17ZM84.2387 34.725C84.998 34.725 85.61 34.47 86.0747 33.96C86.5393 33.4387 86.7717 32.7757 86.7717 31.971C86.7717 31.4157 86.664 30.934 86.4487 30.526C86.2447 30.1067 85.95 29.7837 85.5647 29.557C85.1793 29.319 84.7317 29.2 84.2217 29.2C83.7117 29.2 83.2583 29.319 82.8617 29.557C82.4763 29.795 82.1703 30.1237 81.9437 30.543C81.7283 30.951 81.6207 31.4213 81.6207 31.954C81.6207 32.498 81.7283 32.9797 81.9437 33.399C82.1703 33.807 82.482 34.13 82.8787 34.368C83.2753 34.606 83.7287 34.725 84.2387 34.725ZM86.6697 36V33.824L86.9587 31.852L86.6697 29.897V27.925H88.2167V36H86.6697ZM90.0532 36V27.925H91.5832V36H90.0532ZM90.8182 26.31C90.5349 26.31 90.3025 26.2193 90.1212 26.038C89.9399 25.8453 89.8492 25.6073 89.8492 25.324C89.8492 25.052 89.9399 24.8253 90.1212 24.644C90.3025 24.4513 90.5349 24.355 90.8182 24.355C91.1015 24.355 91.3339 24.4513 91.5152 24.644C91.6965 24.8253 91.7872 25.052 91.7872 25.324C91.7872 25.6073 91.6965 25.8453 91.5152 26.038C91.3339 26.2193 91.1015 26.31 90.8182 26.31ZM99.1419 36V31.291C99.1419 30.679 98.9493 30.1747 98.5639 29.778C98.1786 29.3813 97.6799 29.183 97.0679 29.183C96.6599 29.183 96.2973 29.2737 95.9799 29.455C95.6626 29.6363 95.4133 29.8857 95.2319 30.203C95.0506 30.5203 94.9599 30.883 94.9599 31.291L94.3309 30.934C94.3309 30.322 94.4669 29.778 94.7389 29.302C95.0109 28.826 95.3906 28.452 95.8779 28.18C96.3653 27.8967 96.9149 27.755 97.5269 27.755C98.1389 27.755 98.6773 27.908 99.1419 28.214C99.6179 28.52 99.9919 28.9223 100.264 29.421C100.536 29.9083 100.672 30.4297 100.672 30.985V36H99.1419ZM93.4299 36V27.925H94.9599V36H93.4299Z" fill="#F6F6F7"/>
<path d="M38.9006 36H38.8006V36.1H38.9006V36ZM38.9006 24.542V24.442H38.8006V24.542H38.9006ZM40.4986 24.542H40.5986V24.442H40.4986V24.542ZM40.4986 36V36.1H40.5986V36H40.4986ZM34.8886 25.664H34.7886V25.764H34.8886V25.664ZM34.8886 24.202V24.102H34.7886V24.202H34.8886ZM44.4936 24.202H44.5936V24.102H44.4936V24.202ZM44.4936 25.664V25.764H44.5936V25.664H44.4936ZM39.0006 36V24.542H38.8006V36H39.0006ZM38.9006 24.642H40.4986V24.442H38.9006V24.642ZM40.3986 24.542V36H40.5986V24.542H40.3986ZM40.4986 35.9H38.9006V36.1H40.4986V35.9ZM34.9886 25.664V24.202H34.7886V25.664H34.9886ZM34.8886 24.302H44.4936V24.102H34.8886V24.302ZM44.3936 24.202V25.664H44.5936V24.202H44.3936ZM44.4936 25.564H34.8886V25.764H44.4936V25.564ZM43.908 36H43.808V36.1H43.908V36ZM43.908 27.925V27.825H43.808V27.925H43.908ZM45.438 27.925H45.538V27.825H45.438V27.925ZM45.438 36V36.1H45.538V36H45.438ZM45.438 31.393L45.3976 31.4845L45.538 31.5464V31.393H45.438ZM44.86 31.138H44.76V31.2032L44.8196 31.2295L44.86 31.138ZM45.574 28.673L45.4951 28.6116L45.574 28.673ZM48.736 27.976L48.6951 28.0673L48.6978 28.0684L48.736 27.976ZM49.654 28.673L49.7259 28.7425L49.7894 28.6769L49.7298 28.6077L49.654 28.673ZM48.651 29.71L48.5781 29.7784L48.6499 29.855L48.7229 29.7795L48.651 29.71ZM45.982 29.744L45.9113 29.6733L45.982 29.744ZM44.008 36V27.925H43.808V36H44.008ZM43.908 28.025H45.438V27.825H43.908V28.025ZM45.338 27.925V36H45.538V27.925H45.338ZM45.438 35.9H43.908V36.1H45.438V35.9ZM45.4784 31.3015L44.9004 31.0465L44.8196 31.2295L45.3976 31.4845L45.4784 31.3015ZM44.96 31.138C44.96 30.1216 45.1945 29.3238 45.6529 28.7344L45.4951 28.6116C45.0015 29.2462 44.76 30.0918 44.76 31.138H44.96ZM45.6529 28.7344C46.1069 28.1507 46.7611 27.855 47.631 27.855V27.655C46.7102 27.655 45.9931 27.9713 45.4951 28.6116L45.6529 28.7344ZM47.631 27.855C48.0268 27.855 48.3809 27.9264 48.6951 28.0673L48.7769 27.8847C48.4338 27.7309 48.0512 27.655 47.631 27.655V27.855ZM48.6978 28.0684C49.0092 28.1972 49.3029 28.4189 49.5783 28.7383L49.7298 28.6077C49.4384 28.2698 49.1202 28.0268 48.7742 27.8836L48.6978 28.0684ZM49.5821 28.6035L48.5791 29.6405L48.7229 29.7795L49.7259 28.7425L49.5821 28.6035ZM48.724 29.6416C48.5451 29.4508 48.346 29.3112 48.1263 29.2258L48.0538 29.4122C48.2421 29.4854 48.4169 29.6065 48.5781 29.7784L48.724 29.6416ZM48.1263 29.2258C47.9083 29.141 47.6575 29.1 47.376 29.1V29.3C47.6385 29.3 47.8637 29.3383 48.0538 29.4122L48.1263 29.2258ZM47.376 29.1C46.7859 29.1 46.2948 29.2898 45.9113 29.6733L46.0527 29.8147C46.3946 29.4728 46.8328 29.3 47.376 29.3V29.1ZM45.9113 29.6733C45.523 30.0616 45.338 30.6414 45.338 31.393H45.538C45.538 30.6712 45.7157 30.1517 46.0527 29.8147L45.9113 29.6733ZM52.8258 36.068L52.734 36.1075L52.76 36.168H52.8258V36.068ZM49.3238 27.925V27.825H49.172L49.232 27.9645L49.3238 27.925ZM51.0238 27.925L51.1164 27.8872L51.091 27.825H51.0238V27.925ZM53.6248 34.3V34.4H53.7736L53.7174 34.2622L53.6248 34.3ZM53.0808 34.3L52.989 34.2605L52.9291 34.4H53.0808V34.3ZM55.8178 27.925V27.825H55.7519L55.726 27.8855L55.8178 27.925ZM57.5178 27.925L57.6086 27.967L57.6744 27.825H57.5178V27.925ZM53.7438 36.068V36.168H53.8077L53.8346 36.1101L53.7438 36.068ZM50.5138 39.383L50.424 39.3392L50.3538 39.483H50.5138V39.383ZM52.8938 34.504L52.9817 34.4562L52.889 34.2857L52.804 34.4602L52.8938 34.504ZM53.7438 36.068L53.8346 36.1099L53.8557 36.0643L53.8317 36.0202L53.7438 36.068ZM52.2138 39.383V39.483H52.2778L52.3046 39.4249L52.2138 39.383ZM52.9177 36.0285L49.4157 27.8855L49.232 27.9645L52.734 36.1075L52.9177 36.0285ZM49.3238 28.025H51.0238V27.825H49.3238V28.025ZM50.9312 27.9628L53.5322 34.3378L53.7174 34.2622L51.1164 27.8872L50.9312 27.9628ZM53.6248 34.2H53.0808V34.4H53.6248V34.2ZM53.1727 34.3395L55.9097 27.9645L55.726 27.8855L52.989 34.2605L53.1727 34.3395ZM55.8178 28.025H57.5178V27.825H55.8178V28.025ZM57.4271 27.8829L53.6531 36.0259L53.8346 36.1101L57.6086 27.967L57.4271 27.8829ZM53.7438 35.968H52.8258V36.168H53.7438V35.968ZM50.6037 39.4268L52.9837 34.5478L52.804 34.4602L50.424 39.3392L50.6037 39.4268ZM52.806 34.5518L53.656 36.1158L53.8317 36.0202L52.9817 34.4562L52.806 34.5518ZM53.653 36.0261L52.123 39.3411L52.3046 39.4249L53.8346 36.1099L53.653 36.0261ZM52.2138 39.283H50.5138V39.483H52.2138V39.283ZM63.0544 35.626L63.0015 35.7109L63.0027 35.7116L63.0544 35.626ZM61.6264 34.113L61.5382 34.1602L61.5389 34.1614L61.6264 34.113ZM61.6264 29.829L61.5389 29.7806L61.5382 29.7818L61.6264 29.829ZM63.0374 28.316L62.9845 28.2311L62.9838 28.2316L63.0374 28.316ZM66.6924 28.146L66.6443 28.2337L66.6468 28.235L66.6924 28.146ZM67.8654 29.2L67.7815 29.2545L67.7822 29.2555L67.8654 29.2ZM68.3584 30.747H68.4586L68.4582 30.7412L68.3584 30.747ZM68.3584 33.178L68.4584 33.1839V33.178H68.3584ZM67.8654 34.725L67.7815 34.6705L67.7806 34.672L67.8654 34.725ZM66.7094 35.796L66.7558 35.8846L66.7566 35.8842L66.7094 35.796ZM67.1514 33.96L67.2253 34.0274L67.226 34.0265L67.1514 33.96ZM67.5254 30.526L67.4354 30.5698L67.437 30.5727L67.5254 30.526ZM66.6414 29.557L66.5888 29.6421L66.5907 29.6432L66.6414 29.557ZM63.9384 29.557L63.8869 29.4712L63.8858 29.4719L63.9384 29.557ZM63.0204 30.543L62.9324 30.4954L62.932 30.4963L63.0204 30.543ZM63.0204 33.399L62.9314 33.4447L62.933 33.4476L63.0204 33.399ZM63.9554 34.368L63.9039 34.4537L63.9554 34.368ZM67.7464 36H67.6464V36.1H67.7464V36ZM67.7464 33.824L67.6475 33.8095L67.6464 33.8167V33.824H67.7464ZM68.0354 31.852L68.1343 31.8665L68.1365 31.8519L68.1343 31.8374L68.0354 31.852ZM67.7464 29.897H67.6464V29.9044L67.6475 29.9116L67.7464 29.897ZM67.7464 27.925V27.825H67.6464V27.925H67.7464ZM69.2934 27.925H69.3934V27.825H69.2934V27.925ZM69.2934 36V36.1H69.3934V36H69.2934ZM65.0604 36.07C64.341 36.07 63.6904 35.8932 63.1061 35.5404L63.0027 35.7116C63.6198 36.0842 64.3065 36.27 65.0604 36.27V36.07ZM63.1073 35.5411C62.5214 35.1763 62.0572 34.6847 61.7139 34.0646L61.5389 34.1614C61.8983 34.8106 62.386 35.3277 63.0015 35.7109L63.1073 35.5411ZM61.7145 34.0658C61.3831 33.4471 61.2164 32.7496 61.2164 31.971H61.0164C61.0164 32.7791 61.1897 33.5096 61.5382 34.1602L61.7145 34.0658ZM61.2164 31.971C61.2164 31.1924 61.3831 30.4949 61.7145 29.8762L61.5382 29.7818C61.1897 30.4324 61.0164 31.1629 61.0164 31.971H61.2164ZM61.7139 29.8774C62.0574 29.2568 62.5163 28.7651 63.091 28.4004L62.9838 28.2316C62.3798 28.6149 61.898 29.1318 61.5389 29.7806L61.7139 29.8774ZM63.0903 28.4009C63.6741 28.0373 64.33 27.855 65.0604 27.855V27.655C64.2948 27.655 63.602 27.8467 62.9845 28.2311L63.0903 28.4009ZM65.0604 27.855C65.6578 27.855 66.1849 27.9821 66.6444 28.2337L66.7404 28.0583C66.2479 27.7886 65.687 27.655 65.0604 27.655V27.855ZM66.6468 28.235C67.1188 28.4765 67.4965 28.816 67.7816 29.2545L67.9492 29.1455C67.6449 28.6773 67.2406 28.3142 66.7379 28.057L66.6468 28.235ZM67.7822 29.2555C68.0659 29.6811 68.2255 30.1792 68.2586 30.7528L68.4582 30.7412C68.4233 30.1362 68.2542 29.6029 67.9486 29.1445L67.7822 29.2555ZM68.2584 30.747V33.178H68.4584V30.747H68.2584ZM68.2586 33.1721C68.2255 33.7341 68.0661 34.2327 67.7816 34.6705L67.9492 34.7795C68.254 34.3106 68.4233 33.7779 68.4582 33.1839L68.2586 33.1721ZM67.7806 34.672C67.5068 35.11 67.1347 35.4551 66.6622 35.7078L66.7566 35.8842C67.2588 35.6156 67.6573 35.2467 67.9502 34.778L67.7806 34.672ZM66.663 35.7074C66.2034 35.9481 65.6702 36.07 65.0604 36.07V36.27C65.6973 36.27 66.2633 36.1425 66.7558 35.8846L66.663 35.7074ZM65.3154 34.825C66.0997 34.825 66.7397 34.5604 67.2253 34.0273L67.0775 33.8927C66.6338 34.3796 66.0497 34.625 65.3154 34.625V34.825ZM67.226 34.0265C67.7095 33.4841 67.9484 32.7962 67.9484 31.971H67.7484C67.7484 32.7551 67.5226 33.3932 67.0767 33.8935L67.226 34.0265ZM67.9484 31.971C67.9484 31.4027 67.8382 30.9044 67.6138 30.4793L67.437 30.5727C67.6433 30.9636 67.7484 31.4286 67.7484 31.971H67.9484ZM67.6153 30.4823C67.4031 30.046 67.0952 29.7079 66.6921 29.4708L66.5907 29.6432C66.9583 29.8594 67.2397 30.1673 67.4355 30.5697L67.6153 30.4823ZM66.6939 29.4719C66.2909 29.223 65.8246 29.1 65.2984 29.1V29.3C65.7922 29.3 66.2212 29.415 66.5888 29.6421L66.6939 29.4719ZM65.2984 29.1C64.7722 29.1 64.3007 29.223 63.8869 29.4713L63.9898 29.6427C64.3694 29.415 64.8046 29.3 65.2984 29.3V29.1ZM63.8858 29.4719C63.4848 29.7196 63.167 30.0616 62.9324 30.4954L63.1084 30.5906C63.3272 30.1858 63.6213 29.8704 63.9909 29.6421L63.8858 29.4719ZM62.932 30.4963C62.7079 30.9208 62.5974 31.4076 62.5974 31.954H62.7974C62.7974 31.4351 62.9022 30.9812 63.1088 30.5897L62.932 30.4963ZM62.5974 31.954C62.5974 32.5114 62.7078 33.0092 62.9314 33.4447L63.1094 33.3533C62.9023 32.9502 62.7974 32.4846 62.7974 31.954H62.5974ZM62.933 33.4476C63.1681 33.8708 63.4921 34.2066 63.9039 34.4537L64.0068 34.2823C63.6254 34.0534 63.326 33.7432 63.1078 33.3504L62.933 33.4476ZM63.9039 34.4537C64.3177 34.702 64.7892 34.825 65.3154 34.825V34.625C64.8216 34.625 64.3864 34.51 64.0068 34.2823L63.9039 34.4537ZM67.8464 36V33.824H67.6464V36H67.8464ZM67.8453 33.8385L68.1343 31.8665L67.9365 31.8375L67.6475 33.8095L67.8453 33.8385ZM68.1343 31.8374L67.8453 29.8824L67.6475 29.9116L67.9365 31.8666L68.1343 31.8374ZM67.8464 29.897V27.925H67.6464V29.897H67.8464ZM67.7464 28.025H69.2934V27.825H67.7464V28.025ZM69.1934 27.925V36H69.3934V27.925H69.1934ZM69.2934 35.9H67.7464V36.1H69.2934V35.9ZM72.2519 39.094L72.2085 39.1841L72.2091 39.1844L72.2519 39.094ZM70.7219 37.802L70.6506 37.7319L70.5925 37.791L70.6398 37.859L70.7219 37.802ZM71.7079 36.799L71.7866 36.7373L71.7164 36.6477L71.6366 36.7289L71.7079 36.799ZM72.8809 37.751L72.9257 37.6615L72.9238 37.6607L72.8809 37.751ZM76.4509 37.428L76.3847 37.353L76.3829 37.3547L76.4509 37.428ZM77.1819 33.671L77.083 33.6562L77.0819 33.6636V33.671H77.1819ZM77.4539 31.852L77.5528 31.8668L77.555 31.8519L77.5528 31.8371L77.4539 31.852ZM77.1819 30.05H77.0819V30.0575L77.083 30.0649L77.1819 30.05ZM77.1819 27.925V27.825H77.0819V27.925H77.1819ZM78.7119 27.925H78.8119V27.825H78.7119V27.925ZM78.1679 37.7L78.0832 37.6468L78.0825 37.6481L78.1679 37.7ZM76.6719 39.06L76.6266 38.9709L76.6259 38.9712L76.6719 39.06ZM72.4729 35.337L72.421 35.4225L72.4217 35.4229L72.4729 35.337ZM71.0959 33.892L71.0081 33.9399L71.0085 33.9406L71.0959 33.892ZM71.0959 29.744L71.183 29.7933L71.1833 29.7926L71.0959 29.744ZM72.4729 28.299L72.5249 28.3845L72.5253 28.3842L72.4729 28.299ZM76.1449 28.129L76.1905 28.04V28.04L76.1449 28.129ZM77.3009 29.183L77.2161 29.236L77.2177 29.2385L77.3009 29.183ZM77.7769 30.747H77.877L77.8769 30.7432L77.7769 30.747ZM77.7769 32.889L77.8769 32.8948V32.889H77.7769ZM77.2839 34.453L77.2001 34.3985L77.1997 34.399L77.2839 34.453ZM76.1279 35.49L76.1735 35.579L76.1279 35.49ZM76.0769 34.096L76.0281 34.0087L76.027 34.0093L76.0769 34.096ZM76.9609 33.195L77.0493 33.2418L77.0499 33.2407L76.9609 33.195ZM76.9439 30.458L76.8549 30.5038L76.8566 30.5068L76.9439 30.458ZM76.0769 29.54L76.0251 29.6255L76.027 29.6267L76.0769 29.54ZM73.4079 29.54L73.4567 29.6273L73.4586 29.6262L73.4079 29.54ZM72.4899 30.458L72.4031 30.4084L72.4026 30.4092L72.4899 30.458ZM72.4899 33.161L72.402 33.2087L72.4031 33.2106L72.4899 33.161ZM73.4079 34.096L73.3572 34.1822L73.3602 34.1839L73.4079 34.096ZM74.4619 39.453C73.6471 39.453 72.9254 39.3024 72.2947 39.0036L72.2091 39.1844C72.8704 39.4976 73.6221 39.653 74.4619 39.653V39.453ZM72.2954 39.0039C71.6755 38.7051 71.1792 38.2855 70.8041 37.745L70.6398 37.859C71.0354 38.4291 71.559 38.8709 72.2085 39.1841L72.2954 39.0039ZM70.7932 37.8721L71.7792 36.8691L71.6366 36.7289L70.6506 37.7319L70.7932 37.8721ZM71.6292 36.8607C71.9668 37.2914 72.3698 37.6189 72.838 37.8413L72.9238 37.6607C72.4853 37.4524 72.1063 37.1452 71.7866 36.7373L71.6292 36.8607ZM72.8362 37.8404C73.3062 38.0755 73.8606 38.191 74.4959 38.191V37.991C73.8846 37.991 73.3623 37.8799 72.9256 37.6616L72.8362 37.8404ZM74.4959 38.191C75.3413 38.191 76.0198 37.9648 76.519 37.5013L76.3829 37.3547C75.93 37.7752 75.3052 37.991 74.4959 37.991V38.191ZM76.5171 37.5029C77.0289 37.0507 77.2819 36.4381 77.2819 35.677H77.0819C77.0819 36.3892 76.8476 36.944 76.3847 37.3531L76.5171 37.5029ZM77.2819 35.677V33.671H77.0819V35.677H77.2819ZM77.2808 33.6858L77.5528 31.8668L77.355 31.8372L77.083 33.6562L77.2808 33.6858ZM77.5528 31.8371L77.2808 30.0351L77.083 30.0649L77.355 31.8669L77.5528 31.8371ZM77.2819 30.05V27.925H77.0819V30.05H77.2819ZM77.1819 28.025H78.7119V27.825H77.1819V28.025ZM78.6119 27.925V35.677H78.8119V27.925H78.6119ZM78.6119 35.677C78.6119 36.4314 78.4346 37.0868 78.0832 37.6469L78.2526 37.7531C78.6265 37.1572 78.8119 36.464 78.8119 35.677H78.6119ZM78.0825 37.6481C77.7415 38.209 77.2572 38.65 76.6266 38.9709L76.7173 39.1491C77.3786 38.8127 77.8917 38.347 78.2534 37.7519L78.0825 37.6481ZM76.6259 38.9712C76.0078 39.2913 75.2874 39.453 74.4619 39.453V39.653C75.3138 39.653 76.0668 39.486 76.7179 39.1488L76.6259 38.9712ZM74.4619 35.764C73.7419 35.764 73.0968 35.5925 72.5241 35.2511L72.4217 35.4229C73.0277 35.7841 73.7086 35.964 74.4619 35.964V35.764ZM72.5249 35.2515C71.9622 34.9095 71.5152 34.4408 71.1833 33.8434L71.0085 33.9406C71.3566 34.5672 71.8276 35.0618 72.421 35.4225L72.5249 35.2515ZM71.1837 33.8441C70.8524 33.2367 70.6859 32.5564 70.6859 31.801H70.4859C70.4859 32.5869 70.6595 33.3006 71.0081 33.9399L71.1837 33.8441ZM70.6859 31.801C70.6859 31.0455 70.8524 30.3772 71.1829 29.7933L71.0089 29.6947C70.6594 30.3121 70.4859 31.0151 70.4859 31.801H70.6859ZM71.1833 29.7926C71.5152 29.1952 71.9622 28.7265 72.5249 28.3845L72.421 28.2135C71.8276 28.5742 71.3566 29.0688 71.0085 29.6954L71.1833 29.7926ZM72.5253 28.3842C73.0979 28.0318 73.7425 27.855 74.4619 27.855V27.655C73.708 27.655 73.0266 27.8408 72.4205 28.2138L72.5253 28.3842ZM74.4619 27.855C75.0833 27.855 75.6282 27.977 76.0994 28.218L76.1905 28.04C75.687 27.7824 75.1099 27.655 74.4619 27.655V27.855ZM76.0994 28.218C76.571 28.4593 76.9426 28.7984 77.2161 29.236L77.3857 29.13C77.0926 28.6609 76.6935 28.2973 76.1905 28.04L76.0994 28.218ZM77.2177 29.2385C77.5009 29.6632 77.6549 30.1661 77.677 30.7508L77.8769 30.7432C77.8536 30.1266 77.6903 29.5868 77.3841 29.1275L77.2177 29.2385ZM77.6769 30.747V32.889H77.8769V30.747H77.6769ZM77.6771 32.8832C77.644 33.4569 77.4844 33.9611 77.2001 34.3985L77.3678 34.5075C77.6728 34.0383 77.8419 33.4998 77.8768 32.8948L77.6771 32.8832ZM77.1997 34.399C76.9264 34.8255 76.5547 35.1593 76.0824 35.401L76.1735 35.579C76.6759 35.322 77.0748 34.9645 77.3681 34.507L77.1997 34.399ZM76.0824 35.401C75.611 35.6422 75.0716 35.764 74.4619 35.764V35.964C75.0989 35.964 75.6702 35.8365 76.1735 35.579L76.0824 35.401ZM74.7679 34.519C75.2813 34.519 75.7354 34.408 76.1268 34.1827L76.027 34.0093C75.6704 34.2147 75.2518 34.319 74.7679 34.319V34.519ZM76.1257 34.1833C76.5276 33.9587 76.8362 33.6444 77.0493 33.2418L76.8725 33.1482C76.6777 33.5163 76.3969 33.8027 76.0281 34.0087L76.1257 34.1833ZM77.0499 33.2407C77.2623 32.8277 77.3669 32.3526 77.3669 31.818H77.1669C77.1669 32.3261 77.0676 32.769 76.872 33.1493L77.0499 33.2407ZM77.3669 31.818C77.3669 31.2827 77.2563 30.812 77.0312 30.4092L76.8566 30.5068C77.0622 30.8747 77.1669 31.3106 77.1669 31.818H77.3669ZM77.0329 30.4123C76.8204 29.9991 76.5181 29.6786 76.1268 29.4533L76.027 29.6267C76.3838 29.8321 76.6595 30.1236 76.855 30.5037L77.0329 30.4123ZM76.1288 29.4545C75.7367 29.2169 75.2761 29.1 74.7509 29.1V29.3C75.2457 29.3 75.6692 29.4098 76.0251 29.6255L76.1288 29.4545ZM74.7509 29.1C74.2257 29.1 73.76 29.2169 73.3572 29.4538L73.4586 29.6262C73.8265 29.4098 74.2562 29.3 74.7509 29.3V29.1ZM73.3591 29.4527C72.9574 29.6772 72.6385 29.9965 72.4031 30.4084L72.5767 30.5076C72.7947 30.1262 73.0878 29.8334 73.4567 29.6273L73.3591 29.4527ZM72.4026 30.4092C72.1777 30.8116 72.0669 31.2766 72.0669 31.801H72.2669C72.2669 31.3054 72.3714 30.875 72.5772 30.5068L72.4026 30.4092ZM72.0669 31.801C72.0669 32.3255 72.1778 32.7956 72.402 33.2087L72.5778 33.1133C72.3714 32.7331 72.2669 32.2965 72.2669 31.801H72.0669ZM72.4031 33.2106C72.6382 33.6221 72.9565 33.9465 73.3572 34.1822L73.4586 34.0098C73.0887 33.7922 72.795 33.4933 72.5767 33.1114L72.4031 33.2106ZM73.3602 34.1839C73.7733 34.4082 74.2435 34.519 74.7679 34.519V34.319C74.2724 34.319 73.8358 34.2145 73.4556 34.0081L73.3602 34.1839ZM81.9777 35.626L81.9248 35.7109L81.926 35.7116L81.9777 35.626ZM80.5497 34.113L80.4615 34.1602L80.4622 34.1614L80.5497 34.113ZM80.5497 29.829L80.4622 29.7806L80.4615 29.7818L80.5497 29.829ZM81.9607 28.316L81.9078 28.2311L81.9071 28.2316L81.9607 28.316ZM85.6157 28.146L85.5676 28.2337L85.5701 28.235L85.6157 28.146ZM86.7887 29.2L86.7048 29.2545L86.7054 29.2555L86.7887 29.2ZM87.2817 30.747H87.3818L87.3815 30.7412L87.2817 30.747ZM87.2817 33.178L87.3817 33.1839V33.178H87.2817ZM86.7887 34.725L86.7048 34.6705L86.7039 34.672L86.7887 34.725ZM85.6327 35.796L85.6791 35.8846L85.6798 35.8842L85.6327 35.796ZM86.0747 33.96L86.1486 34.0274L86.1493 34.0265L86.0747 33.96ZM86.4487 30.526L86.3587 30.5698L86.3602 30.5727L86.4487 30.526ZM85.5647 29.557L85.5121 29.6421L85.514 29.6432L85.5647 29.557ZM82.8617 29.557L82.8102 29.4712L82.8091 29.4719L82.8617 29.557ZM81.9437 30.543L81.8557 30.4954L81.8552 30.4963L81.9437 30.543ZM81.9437 33.399L81.8546 33.4447L81.8562 33.4476L81.9437 33.399ZM82.8787 34.368L82.8272 34.4537L82.8787 34.368ZM86.6697 36H86.5697V36.1H86.6697V36ZM86.6697 33.824L86.5707 33.8095L86.5697 33.8167V33.824H86.6697ZM86.9587 31.852L87.0576 31.8665L87.0597 31.8519L87.0576 31.8374L86.9587 31.852ZM86.6697 29.897H86.5697V29.9044L86.5707 29.9116L86.6697 29.897ZM86.6697 27.925V27.825H86.5697V27.925H86.6697ZM88.2167 27.925H88.3167V27.825H88.2167V27.925ZM88.2167 36V36.1H88.3167V36H88.2167ZM83.9837 36.07C83.2643 36.07 82.6136 35.8932 82.0293 35.5404L81.926 35.7116C82.543 36.0842 83.2297 36.27 83.9837 36.27V36.07ZM82.0305 35.5411C81.4447 35.1763 80.9804 34.6847 80.6371 34.0646L80.4622 34.1614C80.8215 34.8106 81.3093 35.3277 81.9248 35.7109L82.0305 35.5411ZM80.6378 34.0658C80.3064 33.4471 80.1397 32.7496 80.1397 31.971H79.9397C79.9397 32.7791 80.113 33.5096 80.4615 34.1602L80.6378 34.0658ZM80.1397 31.971C80.1397 31.1924 80.3064 30.4949 80.6378 29.8762L80.4615 29.7818C80.113 30.4324 79.9397 31.1629 79.9397 31.971H80.1397ZM80.6371 29.8774C80.9807 29.2568 81.4396 28.7651 82.0142 28.4004L81.9071 28.2316C81.303 28.6149 80.8213 29.1318 80.4622 29.7806L80.6371 29.8774ZM82.0135 28.4009C82.5974 28.0373 83.2532 27.855 83.9837 27.855V27.655C83.2181 27.655 82.5252 27.8467 81.9078 28.2311L82.0135 28.4009ZM83.9837 27.855C84.581 27.855 85.1081 27.9821 85.5676 28.2337L85.6637 28.0583C85.1712 27.7886 84.6103 27.655 83.9837 27.655V27.855ZM85.5701 28.235C86.0421 28.4765 86.4198 28.816 86.7048 29.2545L86.8725 29.1455C86.5682 28.6773 86.1639 28.3142 85.6612 28.057L85.5701 28.235ZM86.7054 29.2555C86.9892 29.6811 87.1487 30.1792 87.1818 30.7528L87.3815 30.7412C87.3466 30.1362 87.1775 29.6029 86.8719 29.1445L86.7054 29.2555ZM87.1817 30.747V33.178H87.3817V30.747H87.1817ZM87.1818 33.1721C87.1488 33.7341 86.9894 34.2327 86.7048 34.6705L86.8725 34.7795C87.1773 34.3106 87.3465 33.7779 87.3815 33.1839L87.1818 33.1721ZM86.7039 34.672C86.4301 35.11 86.058 35.4551 85.5855 35.7078L85.6798 35.8842C86.182 35.6156 86.5805 35.2467 86.8735 34.778L86.7039 34.672ZM85.5863 35.7074C85.1267 35.9481 84.5934 36.07 83.9837 36.07V36.27C84.6206 36.27 85.1866 36.1425 85.6791 35.8846L85.5863 35.7074ZM84.2387 34.825C85.023 34.825 85.6629 34.5604 86.1486 34.0273L86.0007 33.8927C85.557 34.3796 84.973 34.625 84.2387 34.625V34.825ZM86.1493 34.0265C86.6328 33.4841 86.8717 32.7962 86.8717 31.971H86.6717C86.6717 32.7551 86.4459 33.3932 86 33.8935L86.1493 34.0265ZM86.8717 31.971C86.8717 31.4027 86.7614 30.9044 86.5371 30.4793L86.3602 30.5727C86.5666 30.9636 86.6717 31.4286 86.6717 31.971H86.8717ZM86.5386 30.4823C86.3264 30.046 86.0184 29.7079 85.6154 29.4708L85.514 29.6432C85.8816 29.8594 86.1629 30.1673 86.3587 30.5697L86.5386 30.4823ZM85.6172 29.4719C85.2142 29.223 84.7478 29.1 84.2217 29.1V29.3C84.7155 29.3 85.1445 29.415 85.5121 29.6421L85.6172 29.4719ZM84.2217 29.1C83.6954 29.1 83.224 29.223 82.8102 29.4713L82.9131 29.6427C83.2927 29.415 83.7279 29.3 84.2217 29.3V29.1ZM82.8091 29.4719C82.4081 29.7196 82.0902 30.0616 81.8557 30.4954L82.0316 30.5906C82.2504 30.1858 82.5445 29.8704 82.9142 29.6421L82.8091 29.4719ZM81.8552 30.4963C81.6312 30.9208 81.5207 31.4076 81.5207 31.954H81.7207C81.7207 31.4351 81.8255 30.9812 82.0321 30.5897L81.8552 30.4963ZM81.5207 31.954C81.5207 32.5114 81.6311 33.0092 81.8547 33.4447L82.0326 33.3533C81.8256 32.9502 81.7207 32.4846 81.7207 31.954H81.5207ZM81.8562 33.4476C82.0913 33.8708 82.4154 34.2066 82.8272 34.4537L82.9301 34.2823C82.5486 34.0534 82.2493 33.7432 82.0311 33.3504L81.8562 33.4476ZM82.8272 34.4537C83.241 34.702 83.7124 34.825 84.2387 34.825V34.625C83.7449 34.625 83.3097 34.51 82.9301 34.2823L82.8272 34.4537ZM86.7697 36V33.824H86.5697V36H86.7697ZM86.7686 33.8385L87.0576 31.8665L86.8597 31.8375L86.5707 33.8095L86.7686 33.8385ZM87.0576 31.8374L86.7686 29.8824L86.5707 29.9116L86.8597 31.8666L87.0576 31.8374ZM86.7697 29.897V27.925H86.5697V29.897H86.7697ZM86.6697 28.025H88.2167V27.825H86.6697V28.025ZM88.1167 27.925V36H88.3167V27.925H88.1167ZM88.2167 35.9H86.6697V36.1H88.2167V35.9ZM90.0532 36H89.9532V36.1H90.0532V36ZM90.0532 27.925V27.825H89.9532V27.925H90.0532ZM91.5832 27.925H91.6832V27.825H91.5832V27.925ZM91.5832 36V36.1H91.6832V36H91.5832ZM90.1212 26.038L90.0483 26.1066L90.0505 26.1087L90.1212 26.038ZM90.1212 24.644L90.1919 24.7147L90.194 24.7125L90.1212 24.644ZM91.5152 24.644L91.4423 24.7126L91.4445 24.7147L91.5152 24.644ZM91.5152 26.038L91.5859 26.1087L91.588 26.1065L91.5152 26.038ZM90.1532 36V27.925H89.9532V36H90.1532ZM90.0532 28.025H91.5832V27.825H90.0532V28.025ZM91.4832 27.925V36H91.6832V27.925H91.4832ZM91.5832 35.9H90.0532V36.1H91.5832V35.9ZM90.8182 26.21C90.5583 26.21 90.3524 26.1278 90.1919 25.9673L90.0505 26.1087C90.2526 26.3108 90.5114 26.41 90.8182 26.41V26.21ZM90.194 25.9695C90.0314 25.7967 89.9492 25.5838 89.9492 25.324H89.7492C89.7492 25.6308 89.8483 25.8939 90.0484 26.1065L90.194 25.9695ZM89.9492 25.324C89.9492 25.0767 90.0305 24.8761 90.1919 24.7147L90.0505 24.5733C89.8492 24.7746 89.7492 25.0273 89.7492 25.324H89.9492ZM90.194 24.7125C90.355 24.5415 90.5602 24.455 90.8182 24.455V24.255C90.5095 24.255 90.25 24.3612 90.0484 24.5755L90.194 24.7125ZM90.8182 24.455C91.0761 24.455 91.2814 24.5415 91.4424 24.7125L91.588 24.5755C91.3863 24.3612 91.1269 24.255 90.8182 24.255V24.455ZM91.4445 24.7147C91.6058 24.8761 91.6872 25.0767 91.6872 25.324H91.8872C91.8872 25.0273 91.7872 24.7746 91.5859 24.5733L91.4445 24.7147ZM91.6872 25.324C91.6872 25.5838 91.6049 25.7967 91.4424 25.9695L91.588 26.1065C91.7881 25.8939 91.8872 25.6308 91.8872 25.324H91.6872ZM91.4445 25.9673C91.2839 26.1278 91.078 26.21 90.8182 26.21V26.41C91.125 26.41 91.3838 26.3108 91.5859 26.1087L91.4445 25.9673ZM99.1419 36H99.0419V36.1H99.1419V36ZM98.5639 29.778L98.6357 29.7083L98.5639 29.778ZM95.9799 29.455L95.9303 29.3682L95.9799 29.455ZM94.9599 31.291L94.9106 31.378L95.0599 31.4627V31.291H94.9599ZM94.3309 30.934H94.2309V30.9922L94.2816 31.021L94.3309 30.934ZM95.8779 28.18L95.9267 28.2673L95.9282 28.2665L95.8779 28.18ZM99.1419 28.214L99.0869 28.2975L99.0879 28.2981L99.1419 28.214ZM100.264 29.421L100.176 29.4689L100.177 29.4697L100.264 29.421ZM100.672 36V36.1H100.772V36H100.672ZM93.4299 36H93.3299V36.1H93.4299V36ZM93.4299 27.925V27.825H93.3299V27.925H93.4299ZM94.9599 27.925H95.0599V27.825H94.9599V27.925ZM94.9599 36V36.1H95.0599V36H94.9599ZM99.2419 36V31.291H99.0419V36H99.2419ZM99.2419 31.291C99.2419 30.656 99.0411 30.1257 98.6357 29.7083L98.4922 29.8477C98.8574 30.2236 99.0419 30.702 99.0419 31.291H99.2419ZM98.6357 29.7083C98.2294 29.2901 97.7038 29.083 97.0679 29.083V29.283C97.6561 29.283 98.1278 29.4726 98.4922 29.8477L98.6357 29.7083ZM97.0679 29.083C96.6446 29.083 96.2645 29.1772 95.9303 29.3682L96.0296 29.5418C96.3301 29.3701 96.6753 29.283 97.0679 29.283V29.083ZM95.9303 29.3682C95.5975 29.5584 95.3353 29.8205 95.1451 30.1534L95.3188 30.2526C95.4912 29.9508 95.7277 29.7143 96.0296 29.5418L95.9303 29.3682ZM95.1451 30.1534C94.9542 30.4875 94.8599 30.8677 94.8599 31.291H95.0599C95.0599 30.8983 95.147 30.5531 95.3188 30.2526L95.1451 30.1534ZM95.0093 31.204L94.3803 30.847L94.2816 31.021L94.9106 31.378L95.0093 31.204ZM94.4309 30.934C94.4309 30.3373 94.5634 29.8108 94.8258 29.3516L94.6521 29.2524C94.3705 29.7452 94.2309 30.3067 94.2309 30.934H94.4309ZM94.8258 29.3516C95.0886 28.8917 95.4549 28.5306 95.9267 28.2673L95.8292 28.0927C95.3263 28.3734 94.9333 28.7603 94.6521 29.2524L94.8258 29.3516ZM95.9282 28.2665C96.399 27.9927 96.931 27.855 97.5269 27.855V27.655C96.8988 27.655 96.3316 27.8006 95.8277 28.0935L95.9282 28.2665ZM97.5269 27.855C98.1214 27.855 98.6402 28.0033 99.0869 28.2975L99.1969 28.1305C98.7143 27.8127 98.1565 27.655 97.5269 27.655V27.855ZM99.0879 28.2981C99.5497 28.595 99.9121 28.9849 100.176 29.4689L100.352 29.3731C100.072 28.8598 99.6862 28.445 99.196 28.1299L99.0879 28.2981ZM100.177 29.4697C100.44 29.9422 100.572 30.4468 100.572 30.985H100.772C100.772 30.4125 100.632 29.8744 100.351 29.3723L100.177 29.4697ZM100.572 30.985V36H100.772V30.985H100.572ZM100.672 35.9H99.1419V36.1H100.672V35.9ZM93.5299 36V27.925H93.3299V36H93.5299ZM93.4299 28.025H94.9599V27.825H93.4299V28.025ZM94.8599 27.925V36H95.0599V27.925H94.8599ZM94.9599 35.9H93.4299V36.1H94.9599V35.9Z" fill="#1B234B"/>
</g>
<defs>
<filter id="filter0_d_389_1504" x="0" y="0" width="136" height="68" filterUnits="userSpaceOnUse" color-interpolation-filters="sRGB">
<feFlood flood-opacity="0" result="BackgroundImageFix"/>
<feColorMatrix in="SourceAlpha" type="matrix" values="0 0 0 0 0 0 0 0 0 0 0 0 0 0 0 0 0 0 127 0" result="hardAlpha"/>
<feOffset dy="4"/>
<feGaussianBlur stdDeviation="5"/>
<feComposite in2="hardAlpha" operator="out"/>
<feColorMatrix type="matrix" values="0 0 0 0 0.28776 0 0 0 0 0.37631 0 0 0 0 0.8125 0 0 0 0.25 0"/>
<feBlend mode="normal" in2="BackgroundImageFix" result="effect1_dropShadow_389_1504"/>
<feBlend mode="normal" in="SourceGraphic" in2="effect1_dropShadow_389_1504" result="shape"/>
</filter>
</defs>
</svg>
