<svg width="42" height="42" viewBox="0 0 42 42" fill="none" xmlns="http://www.w3.org/2000/svg">
<path d="M28.4591 15.3077C27.7871 14.77 26.7791 14.8373 26.2079 15.543C25.6367 16.2487 25.771 17.2565 26.4767 17.8277C27.384 18.5669 27.9552 19.7092 27.9552 20.9523C27.9552 22.2962 27.3167 23.4723 26.3087 24.2115C25.6702 24.6819 25.5695 25.6227 26.0734 26.2277L26.2077 26.362C26.7453 27.0004 27.7534 27.1347 28.3916 26.6308C30.0716 25.3204 31.1469 23.2372 31.1469 20.9523C31.1471 18.6676 30.1056 16.6515 28.4591 15.3076L28.4591 15.3077Z" fill="#121212"/>
<path d="M32.1215 10.8054C31.4496 10.2677 30.475 10.4023 29.9038 11.0407C29.3662 11.7126 29.4334 12.7207 30.1054 13.2584C32.3231 15.1062 33.768 17.8615 33.768 20.9528C33.768 24.044 32.3233 26.8328 30.1056 28.6472C29.4337 29.1848 29.3664 30.1929 29.9041 30.8648C30.4417 31.5368 31.4498 31.6713 32.1217 31.1337C35.0786 28.7479 36.9937 25.0857 36.9937 20.9865C36.9599 16.8537 35.0784 13.1913 32.1215 10.8057V10.8054Z" fill="#121212"/>
<path d="M19.0848 8.35259L10.92 14.6358H6.92158C5.88004 14.6358 5.04004 15.4758 5.04004 16.5173V25.3877C5.04004 26.4293 5.88004 27.2693 6.92158 27.2693L10.92 27.2695L19.1184 33.5527C20.5631 34.6615 22.6127 33.6535 22.6127 31.8054V10.0662C22.6127 8.28544 20.5296 7.2439 19.0847 8.3527L19.0848 8.35259Z" fill="#121212"/>
</svg>
